<svg id="svg" version="1.1" xmlns="http://www.w3.org/2000/svg" xmlns:xlink="http://www.w3.org/1999/xlink" width="400" height="317.6151761517615" viewBox="0, 0, 400,317.6151761517615"><g id="svgg"><path id="path0" d="M0.000 157.427 L 0.000 314.853 198.570 314.853 L 397.141 314.853 397.141 157.427 L 397.141 0.000 198.570 0.000 L 0.000 0.000 0.000 157.427 M193.420 62.699 C 194.593 63.808,196.294 65.465,197.201 66.380 C 199.262 68.459,199.038 68.535,203.476 64.257 C 207.693 60.192,208.115 60.031,209.855 61.822 C 211.390 63.404,211.500 63.205,206.360 68.149 L 201.736 72.597 201.821 82.764 L 201.906 92.931 207.307 87.491 C 210.278 84.499,213.394 81.343,214.231 80.477 L 215.753 78.903 215.779 72.312 L 215.806 65.721 216.581 65.426 C 217.888 64.929,220.396 65.058,220.617 65.634 C 220.723 65.910,220.810 68.698,220.810 71.829 L 220.810 77.522 226.608 77.527 C 233.405 77.532,233.365 77.519,233.098 79.770 C 232.812 82.189,233.123 82.096,223.987 82.477 L 218.745 82.695 213.086 88.448 C 207.140 94.495,205.665 96.160,205.980 96.475 C 206.085 96.581,210.340 96.733,215.434 96.814 L 224.696 96.961 229.528 92.166 C 234.909 86.825,234.803 86.878,236.644 88.629 C 238.353 90.255,238.561 89.806,233.995 94.361 C 231.811 96.540,230.024 98.528,230.024 98.778 C 230.024 99.029,231.775 101.002,233.916 103.163 C 238.499 107.790,238.279 107.378,236.956 108.833 C 235.017 110.964,235.198 111.028,230.725 106.637 C 228.505 104.457,226.308 102.375,225.843 102.012 C 224.928 101.295,174.839 100.936,173.529 101.637 C 173.235 101.794,171.636 103.238,169.976 104.844 C 163.337 111.267,163.619 111.152,161.274 108.425 L 160.356 107.357 162.227 105.520 C 163.256 104.510,165.159 102.587,166.455 101.246 L 168.812 98.810 164.572 94.528 L 160.332 90.246 160.944 89.541 C 163.462 86.644,163.281 86.585,168.890 92.152 L 173.708 96.934 183.282 96.884 C 188.548 96.856,192.919 96.732,192.996 96.608 C 193.073 96.483,190.065 93.292,186.311 89.515 L 179.487 82.648 177.829 82.476 C 176.917 82.381,173.967 82.247,171.273 82.178 C 165.589 82.032,165.436 81.954,165.594 79.269 L 165.687 77.681 171.604 77.594 L 177.521 77.508 177.692 76.006 C 177.785 75.180,177.820 72.534,177.768 70.127 C 177.660 65.120,177.654 65.131,180.376 65.131 C 182.704 65.131,182.684 65.069,182.689 72.264 L 182.694 78.634 187.194 83.400 C 192.319 88.827,195.983 92.454,196.341 92.454 C 196.852 92.454,196.985 90.168,196.971 81.614 L 196.957 72.780 192.124 68.021 L 187.292 63.262 188.547 61.972 C 190.281 60.193,190.861 60.280,193.420 62.699 M34.524 71.983 C 34.629 72.257,34.559 72.637,34.369 72.828 C 33.910 73.286,33.012 72.570,33.254 71.939 C 33.486 71.333,34.285 71.361,34.524 71.983 M202.224 106.073 C 207.701 108.568,208.134 116.615,202.939 119.336 C 201.342 120.172,202.015 120.314,208.658 120.540 C 215.968 120.788,215.730 120.718,215.821 122.667 L 215.886 124.067 208.578 124.241 C 199.985 124.445,201.110 124.052,201.122 126.847 L 201.132 129.150 207.639 135.767 C 214.556 142.802,214.662 142.971,212.182 142.971 C 209.800 142.971,208.940 142.406,203.945 137.555 C 201.434 135.117,199.303 133.122,199.209 133.122 C 199.116 133.122,196.827 135.338,194.122 138.046 C 188.840 143.336,188.995 143.245,186.100 142.767 C 184.337 142.475,184.391 142.399,191.118 135.641 L 197.328 129.403 197.234 126.894 L 197.141 124.384 189.913 124.299 L 182.685 124.214 182.685 122.650 C 182.685 120.650,182.139 120.812,189.766 120.547 C 193.385 120.422,196.346 120.197,196.346 120.048 C 196.346 119.899,196.208 119.778,196.040 119.778 C 195.350 119.778,193.338 117.613,192.645 116.126 C 189.727 109.859,196.024 103.250,202.224 106.073 M198.411 110.476 C 197.050 110.811,196.258 112.788,197.485 112.788 C 197.761 112.788,197.922 112.967,197.842 113.185 C 197.762 113.403,197.525 113.543,197.316 113.495 C 196.563 113.323,197.149 114.837,198.022 115.319 C 198.802 115.750,198.938 115.751,199.200 115.332 C 199.420 114.981,199.590 114.951,199.855 115.216 C 200.288 115.649,201.430 115.405,201.430 114.880 C 201.430 114.673,201.271 114.344,201.076 114.150 C 200.870 113.944,200.834 113.619,200.989 113.372 C 202.188 111.457,200.794 109.891,198.411 110.476 M230.279 147.373 C 230.566 147.555,230.663 148.257,230.596 149.672 L 230.500 151.708 199.292 151.789 L 168.083 151.870 167.878 151.055 C 167.594 149.922,167.935 147.699,168.443 147.378 C 168.989 147.032,229.733 147.027,230.279 147.373 M230.600 157.405 C 230.654 158.268,230.616 159.304,230.514 159.709 L 230.329 160.445 199.200 160.445 C 182.078 160.445,168.054 160.338,168.034 160.207 C 167.796 158.609,167.761 157.570,167.914 156.710 L 168.099 155.676 199.300 155.757 L 230.500 155.838 230.600 157.405 M230.277 164.409 C 230.570 164.521,230.662 165.147,230.595 166.557 L 230.500 168.546 199.292 168.627 L 168.083 168.708 167.936 167.992 C 167.450 165.617,167.848 164.424,169.182 164.257 C 170.815 164.053,229.730 164.200,230.277 164.409 M54.667 212.564 C 57.390 214.503,56.596 217.932,53.507 217.580 C 52.583 217.474,52.581 217.471,52.489 215.012 C 52.325 210.657,50.070 211.811,49.677 216.450 L 49.472 218.876 51.980 218.969 C 55.583 219.104,55.618 219.973,52.025 220.109 L 49.563 220.201 49.563 226.479 C 49.563 232.976,49.666 233.519,50.898 233.519 C 51.549 233.519,51.670 234.012,51.072 234.234 C 50.282 234.528,36.999 234.206,36.137 233.872 C 35.351 233.567,33.360 230.969,33.360 230.248 C 33.360 230.090,33.129 229.475,32.847 228.880 L 32.334 227.800 28.753 227.800 L 25.172 227.800 24.689 228.832 C 23.963 230.387,23.193 232.297,23.193 232.545 C 23.193 232.667,23.725 233.019,24.374 233.329 C 26.021 234.114,25.238 234.472,22.073 234.383 C 19.243 234.303,18.745 233.865,20.640 233.120 C 21.519 232.775,22.020 232.337,22.244 231.718 C 22.424 231.223,22.696 230.532,22.849 230.183 C 23.003 229.833,23.357 229.025,23.637 228.387 C 23.917 227.749,24.146 227.145,24.146 227.045 C 24.146 226.945,24.575 225.926,25.099 224.782 C 25.624 223.637,26.052 222.618,26.052 222.518 C 26.052 222.323,26.436 221.422,27.762 218.498 C 28.220 217.489,28.594 216.522,28.594 216.349 C 28.594 216.177,28.737 215.788,28.912 215.484 C 29.087 215.181,29.515 214.243,29.863 213.401 C 30.698 211.383,31.600 211.419,32.395 213.503 C 32.696 214.289,33.031 215.147,33.140 215.409 C 41.313 234.984,40.971 234.389,43.453 233.346 L 44.480 232.914 44.480 226.544 L 44.480 220.175 43.368 220.175 C 42.468 220.175,42.256 220.054,42.256 219.539 C 42.256 219.025,42.468 218.904,43.368 218.904 L 44.480 218.904 44.480 217.390 C 44.480 214.832,46.534 212.251,48.928 211.802 C 50.655 211.479,53.713 211.885,54.667 212.564 M122.450 211.900 C 123.133 212.058,124.112 212.498,124.624 212.877 L 125.555 213.565 126.417 212.740 C 128.045 211.180,128.356 211.531,128.356 214.932 C 128.356 218.583,127.457 219.269,126.194 216.583 C 123.821 211.535,117.956 211.450,118.613 216.473 C 118.821 218.068,119.649 218.907,123.114 221.032 C 128.833 224.541,130.543 227.215,129.170 230.502 C 127.560 234.354,121.083 236.064,116.704 233.792 L 115.087 232.953 114.283 233.757 C 112.839 235.201,112.432 234.610,112.538 231.221 C 112.648 227.679,113.338 227.163,114.606 229.676 C 117.163 234.746,123.959 235.070,123.897 230.119 C 123.874 228.317,122.778 227.218,118.463 224.671 C 114.450 222.303,112.998 220.354,112.966 217.292 C 112.923 213.284,117.413 210.732,122.450 211.900 M153.965 212.518 C 155.090 213.204,155.361 214.113,155.361 217.196 C 155.361 219.435,155.422 219.493,156.791 218.586 C 158.629 217.369,161.922 217.866,163.890 219.656 C 165.380 221.011,165.528 221.712,165.528 227.403 C 165.528 232.937,165.655 233.519,166.863 233.519 C 167.177 233.519,167.434 233.659,167.434 233.830 C 167.434 234.296,166.133 234.534,164.549 234.359 C 163.777 234.273,162.824 234.192,162.431 234.179 C 160.715 234.120,160.445 233.298,160.445 228.142 C 160.445 219.875,158.953 217.226,156.163 220.542 L 155.347 221.511 155.434 227.268 C 155.519 232.926,155.533 233.030,156.255 233.390 C 157.680 234.100,156.909 234.313,152.830 234.338 C 148.409 234.364,147.195 234.103,148.928 233.499 L 149.960 233.139 149.960 223.196 L 149.960 213.254 149.166 213.055 C 148.729 212.945,148.372 212.644,148.372 212.385 C 148.372 211.633,152.682 211.736,153.965 212.518 M213.954 212.843 L 214.774 213.614 214.774 223.338 L 214.774 233.062 215.806 233.456 C 217.521 234.110,216.343 234.378,211.917 234.340 C 207.449 234.302,206.805 234.121,208.544 233.395 L 209.690 232.916 209.690 223.050 C 209.690 213.762,209.657 213.185,209.118 213.185 C 208.511 213.185,207.784 212.613,207.784 212.136 C 207.784 211.436,213.105 212.046,213.954 212.843 M238.434 213.671 C 238.876 214.637,239.237 215.509,239.237 215.609 C 239.237 215.708,239.450 216.240,239.711 216.791 C 239.971 217.341,241.604 221.223,243.339 225.417 C 246.047 231.962,246.610 233.085,247.314 233.342 C 249.227 234.041,247.685 234.608,244.709 234.299 C 241.598 233.976,240.950 233.492,239.508 230.421 L 238.278 227.800 234.675 227.800 L 231.072 227.800 230.229 229.786 C 229.143 232.346,229.159 232.836,230.342 233.249 C 232.357 233.951,231.293 234.438,227.906 234.363 C 225.052 234.300,224.796 234.053,226.649 233.152 C 227.560 232.710,228.118 232.229,228.118 231.886 C 228.118 231.581,228.245 231.254,228.400 231.158 C 228.555 231.062,228.774 230.620,228.885 230.177 C 228.996 229.734,229.441 228.598,229.873 227.653 C 230.306 226.708,230.659 225.852,230.659 225.752 C 230.659 225.651,230.959 224.891,231.326 224.063 C 231.693 223.235,232.112 222.272,232.258 221.922 C 233.174 219.721,233.573 218.781,233.995 217.823 C 234.257 217.229,234.472 216.656,234.472 216.549 C 234.472 216.442,234.737 215.749,235.062 215.008 C 235.387 214.268,235.813 213.268,236.009 212.788 C 236.606 211.322,237.510 211.651,238.434 213.671 M285.161 212.694 C 286.864 214.396,285.412 217.033,283.058 216.516 C 281.134 216.093,280.794 213.615,282.497 212.423 C 283.512 211.712,284.255 211.788,285.161 212.694 M313.069 212.273 C 314.259 212.815,314.773 214.304,314.136 215.364 C 312.645 217.846,308.966 216.211,310.066 213.556 C 310.638 212.173,311.780 211.686,313.069 212.273 M338.023 212.379 C 340.366 213.590,339.202 217.048,336.621 216.542 C 334.721 216.169,334.170 213.781,335.706 212.573 C 336.702 211.789,336.857 211.776,338.023 212.379 M62.526 214.202 C 62.736 214.411,62.907 215.412,62.907 216.426 L 62.907 218.268 64.629 218.268 C 66.832 218.268,67.502 218.503,67.007 219.100 C 66.772 219.383,65.977 219.539,64.774 219.539 L 62.907 219.539 62.907 225.823 C 62.907 233.089,63.059 233.626,65.072 233.457 C 66.368 233.348,67.673 231.828,67.673 230.427 C 67.673 229.945,67.823 229.706,68.070 229.793 C 68.583 229.973,68.419 232.140,67.828 232.984 C 65.786 235.900,60.071 235.093,58.112 231.612 C 57.795 231.050,57.618 229.197,57.506 225.261 L 57.347 219.703 56.398 219.539 C 54.934 219.287,54.912 218.268,56.371 218.268 C 57.477 218.268,57.506 218.237,57.506 217.040 C 57.506 215.199,58.439 214.201,60.296 214.054 C 61.120 213.988,61.874 213.909,61.970 213.878 C 62.066 213.846,62.316 213.992,62.526 214.202 M271.724 214.112 C 271.855 214.126,271.962 215.061,271.962 216.189 L 271.962 218.239 274.106 218.333 C 277.206 218.469,277.188 219.340,274.083 219.475 L 271.915 219.569 272.018 225.876 C 272.110 231.547,272.182 232.250,272.726 232.851 C 273.950 234.202,276.152 233.364,276.587 231.382 C 276.921 229.861,277.035 229.649,277.443 229.791 C 278.609 230.194,276.894 233.865,275.246 234.492 C 273.388 235.198,270.036 234.510,268.514 233.111 C 266.879 231.608,266.575 230.299,266.568 224.722 L 266.561 219.580 265.528 219.480 C 264.866 219.416,264.496 219.209,264.496 218.904 C 264.496 218.598,264.866 218.392,265.528 218.328 C 266.440 218.240,266.561 218.118,266.561 217.279 C 266.561 215.960,267.388 214.494,268.235 214.314 C 269.930 213.953,270.168 213.939,271.724 214.112 M325.273 216.124 L 325.367 218.268 327.364 218.268 C 329.502 218.268,329.839 218.394,329.571 219.094 C 329.449 219.412,328.818 219.539,327.369 219.539 L 325.338 219.539 325.338 225.448 C 325.338 232.586,325.596 233.519,327.576 233.519 C 328.956 233.519,330.103 232.315,330.103 230.867 C 330.103 229.959,330.634 229.474,331.109 229.949 C 332.312 231.153,329.643 234.487,327.296 234.713 C 321.273 235.291,319.871 232.538,319.933 220.254 C 319.936 219.712,319.754 219.539,319.181 219.539 C 318.392 219.539,317.565 218.839,317.927 218.478 C 318.042 218.363,318.524 218.268,318.999 218.268 C 319.912 218.268,320.241 217.673,320.250 216.004 C 320.255 214.934,320.929 214.388,322.585 214.111 C 325.116 213.686,325.168 213.725,325.273 216.124 M81.248 218.437 C 84.632 219.851,87.360 224.881,85.400 226.092 C 84.704 226.523,80.576 227.131,78.237 227.148 L 75.933 227.164 75.940 228.674 C 75.964 233.862,81.415 235.564,83.593 231.063 C 84.233 229.741,84.514 229.497,84.923 229.905 C 85.182 230.165,84.324 232.210,83.626 232.996 C 80.544 236.466,72.721 234.678,70.954 230.100 C 68.135 222.793,74.476 215.608,81.248 218.437 M143.329 218.400 C 146.653 219.792,146.814 223.953,143.545 223.980 C 142.436 223.989,142.335 223.785,142.109 221.093 L 141.919 218.832 140.542 218.988 C 137.992 219.275,137.253 220.974,137.261 226.529 C 137.268 232.028,138.119 233.519,141.251 233.519 C 142.901 233.519,145.195 231.663,145.195 230.328 C 145.195 229.986,145.409 229.706,145.671 229.706 C 146.632 229.706,146.059 231.617,144.688 232.986 C 140.978 236.692,133.439 234.497,131.894 229.263 C 129.763 222.038,136.573 215.569,143.329 218.400 M180.532 218.283 C 187.679 220.268,187.938 231.879,180.889 234.280 C 172.750 237.054,166.414 229.504,170.334 221.702 C 171.840 218.705,176.467 217.154,180.532 218.283 M201.408 218.966 C 209.112 223.370,205.199 235.306,196.244 234.721 C 186.863 234.109,185.251 221.508,194.122 218.145 C 195.429 217.650,200.009 218.166,201.408 218.966 M260.720 218.559 C 263.995 220.046,263.730 224.251,260.382 223.923 L 259.412 223.828 259.253 221.446 L 259.095 219.063 257.966 218.968 C 254.934 218.713,253.025 225.121,254.541 230.464 C 255.645 234.354,260.066 234.708,261.837 231.049 C 262.536 229.605,263.301 229.390,263.116 230.689 C 262.358 236.021,252.744 236.150,249.715 230.869 C 245.546 223.600,253.134 215.114,260.720 218.559 M354.726 218.544 C 358.035 220.053,360.549 224.908,358.633 226.092 C 357.937 226.523,353.809 227.131,351.469 227.148 L 349.166 227.164 349.166 228.395 C 349.166 230.049,349.946 232.160,350.828 232.897 C 352.659 234.423,357.055 232.812,357.098 230.599 C 357.111 229.928,357.700 229.535,358.097 229.932 C 358.546 230.381,357.600 232.363,356.493 233.294 C 352.225 236.886,344.963 234.081,343.752 228.374 C 342.278 221.431,348.613 215.757,354.726 218.544 M371.408 218.855 L 372.414 219.599 373.152 218.905 C 374.541 217.600,375.048 218.115,375.153 220.942 C 375.290 224.591,374.387 224.953,372.722 221.916 C 370.821 218.451,366.958 217.903,366.958 221.100 C 366.958 222.255,367.820 223.006,371.536 225.092 C 375.838 227.507,377.146 230.034,375.349 232.463 C 373.686 234.712,368.278 235.582,365.524 234.043 L 364.049 233.218 363.144 233.888 C 361.661 234.984,361.238 234.534,361.244 231.861 C 361.251 228.421,362.118 227.763,363.435 230.199 C 364.791 232.707,365.897 233.519,367.959 233.519 C 372.099 233.519,371.265 230.280,366.486 227.800 C 361.872 225.406,360.251 222.209,362.417 219.773 C 364.150 217.823,369.301 217.297,371.408 218.855 M92.261 218.710 C 92.842 218.953,93.603 219.458,93.951 219.832 C 94.526 220.449,94.624 220.465,95.007 220.002 C 96.553 218.140,100.197 217.701,101.692 219.197 C 103.194 220.699,102.760 223.116,100.909 223.555 C 99.008 224.006,98.553 223.650,98.711 221.839 C 98.953 219.076,97.996 218.703,95.870 220.731 L 94.996 221.564 94.996 227.313 L 94.996 233.062 96.029 233.456 C 97.741 234.109,96.535 234.416,92.285 234.408 C 87.881 234.401,86.976 234.143,88.753 233.400 L 89.926 232.910 89.840 226.339 C 89.748 219.359,89.800 219.585,88.174 219.069 C 87.650 218.902,87.624 218.821,88.015 218.574 C 88.713 218.133,91.059 218.208,92.261 218.710 M285.813 219.323 C 286.564 220.195,286.577 220.317,286.577 226.483 C 286.577 233.002,286.677 233.519,287.938 233.519 C 288.275 233.519,288.478 233.692,288.403 233.916 C 288.225 234.451,279.857 234.487,279.679 233.954 C 279.613 233.756,279.926 233.503,280.374 233.390 L 281.188 233.186 281.102 226.283 C 281.017 219.396,281.015 219.380,280.302 219.279 C 279.909 219.223,279.587 219.068,279.587 218.935 C 279.587 217.755,284.741 218.076,285.813 219.323 M294.202 218.715 C 295.456 219.165,296.316 220.312,298.281 224.152 C 300.245 227.991,300.358 228.108,300.856 226.807 C 301.082 226.217,301.529 225.143,301.850 224.419 C 302.170 223.696,302.527 222.730,302.641 222.272 C 302.756 221.814,302.978 221.361,303.133 221.265 C 303.824 220.838,303.374 219.848,302.281 219.391 C 300.530 218.660,301.259 218.268,304.369 218.268 C 307.605 218.268,308.179 218.652,306.216 219.503 C 305.224 219.933,304.724 220.394,304.405 221.169 C 304.164 221.758,303.756 222.740,303.499 223.352 C 303.243 223.963,302.924 224.750,302.790 225.099 C 302.657 225.449,302.393 226.092,302.203 226.529 C 302.014 226.966,301.256 228.824,300.519 230.659 C 298.194 236.443,299.028 237.083,292.448 224.464 C 289.968 219.707,289.874 219.569,288.874 219.189 C 286.660 218.348,291.881 217.883,294.202 218.715 M313.774 218.872 C 315.042 219.646,315.163 220.393,315.167 227.530 L 315.171 233.139 316.203 233.499 C 317.967 234.114,316.669 234.395,312.296 234.344 C 308.014 234.294,307.095 234.071,308.765 233.489 L 309.770 233.139 309.770 226.370 L 309.770 219.601 308.793 219.261 C 307.241 218.720,308.021 218.268,310.503 218.270 C 312.184 218.271,313.049 218.430,313.774 218.872 M338.238 218.599 C 339.868 219.219,339.931 219.513,339.942 226.583 L 339.952 233.150 340.905 233.360 C 343.604 233.953,341.645 234.445,336.881 234.372 C 332.624 234.307,332.002 234.114,333.729 233.392 L 334.882 232.910 334.796 226.339 C 334.705 219.359,334.757 219.585,333.130 219.069 C 332.607 218.902,332.581 218.821,332.972 218.574 C 333.605 218.173,337.163 218.190,338.238 218.599 M176.680 219.108 C 173.924 221.038,174.267 232.989,177.099 233.699 C 179.249 234.239,180.461 231.627,180.461 226.451 C 180.461 220.834,178.806 217.619,176.680 219.108 M77.268 219.176 C 75.818 220.095,75.417 226.213,76.807 226.208 C 80.112 226.195,80.539 225.617,80.028 221.852 C 79.701 219.441,78.573 218.348,77.268 219.176 M195.633 219.460 C 193.370 222.006,193.561 231.876,195.903 233.411 C 197.675 234.572,198.999 233.025,199.573 229.123 C 200.505 222.791,198.041 216.750,195.633 219.460 M350.303 219.619 C 349.136 221.408,348.738 226.211,349.757 226.211 C 353.283 226.211,353.827 225.590,353.423 222.023 C 353.110 219.250,351.402 217.934,350.303 219.619 M27.531 221.847 C 27.034 223.112,26.427 224.597,26.181 225.147 C 25.441 226.808,25.500 226.847,28.753 226.847 C 30.413 226.847,31.771 226.735,31.771 226.600 C 31.771 226.094,28.963 219.715,28.704 219.633 C 28.556 219.586,28.029 220.583,27.531 221.847 M234.177 220.254 C 234.023 220.647,233.383 222.180,232.755 223.660 C 232.127 225.140,231.612 226.462,231.612 226.599 C 231.612 226.917,237.645 226.926,237.661 226.608 C 237.686 226.111,234.937 219.544,234.702 219.542 C 234.567 219.540,234.330 219.861,234.177 220.254 " stroke="none" fill="#9cb3e4" fill-rule="evenodd"></path><path id="path1" d="M206.774 61.850 C 206.194 62.316,204.343 64.046,202.661 65.695 C 199.090 69.197,199.197 69.186,196.455 66.316 C 191.618 61.252,190.646 60.727,188.965 62.271 L 187.927 63.224 189.674 64.859 C 190.635 65.759,192.744 67.759,194.361 69.304 L 197.299 72.113 197.299 82.404 C 197.299 91.406,197.236 92.747,196.796 93.112 C 196.287 93.534,187.951 85.427,183.607 80.285 L 182.049 78.442 182.049 72.104 L 182.049 65.766 180.143 65.766 L 178.237 65.766 178.237 71.962 L 178.237 78.157 172.027 78.157 L 165.817 78.157 166.027 79.349 C 166.353 81.192,166.475 81.232,172.983 81.638 C 176.297 81.845,179.218 82.132,179.474 82.275 C 180.445 82.819,194.110 96.665,193.943 96.936 C 193.845 97.094,189.219 97.217,183.540 97.214 L 173.312 97.208 169.023 93.045 C 163.375 87.563,163.701 87.755,162.208 89.045 L 161.004 90.087 164.934 94.167 C 167.179 96.498,168.864 98.508,168.864 98.857 C 168.864 99.214,167.223 101.103,164.901 103.420 L 160.938 107.373 162.189 108.655 C 162.877 109.359,163.549 109.899,163.682 109.853 C 164.006 109.741,167.970 106.187,170.950 103.336 L 173.358 101.033 199.387 101.034 L 225.417 101.036 227.641 103.075 C 228.864 104.197,231.002 106.181,232.392 107.485 L 234.918 109.855 236.125 108.885 C 237.776 107.558,237.825 107.658,233.360 103.244 C 231.176 101.084,229.388 99.126,229.388 98.892 C 229.388 98.658,231.140 96.678,233.280 94.493 C 238.044 89.628,237.899 89.981,235.705 88.578 C 234.590 87.865,234.330 88.053,229.388 93.137 L 225.417 97.223 215.330 97.222 C 204.133 97.220,204.352 97.267,206.076 95.201 C 206.725 94.422,212.876 87.893,217.407 83.172 C 218.340 82.201,219.403 81.970,222.975 81.963 C 226.187 81.956,231.718 81.335,232.117 80.936 C 232.218 80.834,232.380 80.168,232.475 79.454 L 232.649 78.157 226.571 78.157 L 220.492 78.157 220.492 71.962 L 220.492 65.766 218.586 65.766 C 216.725 65.766,216.679 65.787,216.654 66.640 C 216.640 67.121,216.598 68.014,216.562 68.626 C 216.525 69.237,216.465 71.826,216.429 74.379 L 216.362 79.019 212.311 83.249 C 207.132 88.657,202.330 93.407,202.041 93.407 C 201.513 93.407,201.430 91.875,201.432 82.182 L 201.435 71.962 204.182 69.420 C 205.692 68.022,207.716 66.148,208.680 65.255 L 210.432 63.631 209.721 62.633 C 208.575 61.023,207.997 60.869,206.774 61.850 M169.908 147.674 C 168.306 147.777,167.830 148.567,168.122 150.634 L 168.229 151.390 199.206 151.390 L 230.183 151.390 230.278 149.563 L 230.373 147.736 221.382 147.726 C 216.437 147.721,203.169 147.685,191.898 147.647 C 180.627 147.609,170.732 147.621,169.908 147.674 M168.458 156.551 C 168.308 156.858,168.210 157.323,168.239 157.585 C 168.267 157.847,168.313 158.456,168.339 158.937 L 168.388 159.813 199.285 159.732 L 230.183 159.651 230.183 157.903 L 230.183 156.156 199.456 156.075 C 170.428 155.998,168.714 156.024,168.458 156.551 M168.451 164.639 C 167.932 165.158,167.968 167.590,168.502 168.033 C 168.817 168.294,177.193 168.369,199.558 168.310 L 230.183 168.229 230.280 166.511 C 230.346 165.353,230.243 164.708,229.963 164.531 C 229.257 164.083,168.901 164.189,168.451 164.639 " stroke="none" fill="#4b7e68" fill-rule="evenodd"></path><path id="path2" d="M197.725 106.096 C 191.078 107.725,190.615 117.558,197.076 119.872 C 198.692 120.450,194.291 120.973,187.411 121.021 L 183.400 121.048 183.201 122.041 C 183.092 122.587,183.002 123.136,183.002 123.261 C 183.002 123.386,186.247 123.583,190.212 123.699 C 198.450 123.938,197.923 123.710,197.930 127.039 L 197.935 129.376 191.819 135.550 C 184.700 142.735,184.963 142.335,187.348 142.335 L 189.206 142.335 193.963 137.569 C 196.580 134.948,198.941 132.804,199.209 132.804 C 199.478 132.804,201.696 134.747,204.138 137.123 C 206.580 139.498,208.936 141.623,209.373 141.846 C 210.212 142.273,213.050 142.682,213.318 142.414 C 213.405 142.327,210.624 139.379,207.137 135.862 L 200.797 129.468 200.796 126.865 C 200.795 125.434,200.924 124.183,201.082 124.085 C 201.356 123.916,208.649 123.627,213.264 123.602 L 215.409 123.590 215.409 122.370 L 215.409 121.149 208.681 120.947 C 201.627 120.736,200.582 120.510,202.046 119.512 C 205.374 117.242,206.399 115.260,206.012 111.841 C 205.582 108.039,201.459 105.181,197.725 106.096 M201.623 111.358 C 203.217 114.375,200.938 116.976,197.767 115.759 C 196.156 115.140,196.129 111.090,197.731 110.380 C 199.545 109.577,200.856 109.906,201.623 111.358 M49.033 212.280 C 46.753 212.791,45.193 214.525,44.730 217.062 C 44.359 219.090,44.294 219.198,43.378 219.315 L 42.415 219.438 43.453 219.488 L 44.492 219.539 44.406 226.594 L 44.321 233.649 43.527 233.870 C 43.090 233.991,44.662 234.086,47.021 234.079 C 49.380 234.073,50.999 234.007,50.619 233.933 C 49.299 233.676,49.228 233.263,49.318 226.330 L 49.404 219.698 51.787 219.517 L 54.170 219.336 51.708 219.279 L 49.245 219.222 49.245 217.146 C 49.245 214.946,49.845 213.047,50.758 212.354 C 51.425 211.847,51.033 211.831,49.033 212.280 M118.189 212.260 C 114.805 212.914,113.343 214.504,113.379 217.492 C 113.416 220.575,115.345 222.764,120.227 225.261 C 122.595 226.473,124.226 228.398,124.226 229.983 C 124.226 232.050,122.965 233.804,121.464 233.826 C 121.081 233.832,120.670 233.996,120.550 234.190 C 120.207 234.744,124.156 234.187,125.655 233.470 C 128.416 232.150,129.693 229.771,129.008 227.226 C 128.672 225.977,125.582 222.399,124.840 222.399 C 124.190 222.399,120.418 219.781,119.327 218.573 C 117.371 216.409,117.928 213.543,120.525 212.404 L 121.525 211.966 120.572 211.975 C 120.048 211.980,118.975 212.108,118.189 212.260 M26.403 222.573 L 22.146 232.900 20.843 233.500 L 19.539 234.101 22.221 234.127 C 24.644 234.152,24.844 234.109,24.286 233.688 C 23.947 233.431,23.473 233.217,23.233 233.211 C 22.630 233.197,22.951 231.745,24.062 229.454 L 24.940 227.641 28.549 227.551 C 32.692 227.447,32.707 227.454,33.695 229.957 C 34.957 233.152,36.501 234.166,40.069 234.143 C 41.647 234.132,41.722 234.100,41.032 233.717 C 40.534 233.441,39.871 232.309,39.039 230.313 C 38.354 228.669,37.582 226.873,37.324 226.322 C 37.066 225.771,36.855 225.240,36.855 225.140 C 36.855 225.041,36.497 224.178,36.060 223.223 C 35.624 222.268,35.266 221.409,35.266 221.315 C 35.266 221.221,34.837 220.207,34.313 219.063 C 33.789 217.918,33.360 216.900,33.360 216.799 C 33.360 216.625,33.131 216.075,31.953 213.423 C 31.073 211.443,30.815 211.869,26.403 222.573 M52.685 214.749 L 52.789 217.315 53.869 217.315 C 56.775 217.315,56.396 212.949,53.438 212.355 L 52.581 212.183 52.685 214.749 M126.576 213.092 C 125.896 213.825,125.689 213.895,125.165 213.568 C 124.121 212.916,124.119 213.139,125.159 214.323 C 125.708 214.948,126.384 216.027,126.661 216.719 C 127.447 218.683,127.875 218.091,127.912 214.986 C 127.948 212.005,127.790 211.781,126.576 213.092 M236.239 213.061 C 236.124 213.517,235.769 214.482,235.448 215.206 C 235.128 215.929,234.547 217.307,234.157 218.268 C 233.767 219.230,233.177 220.616,232.848 221.349 C 232.518 222.082,232.248 222.762,232.248 222.861 C 232.248 222.960,231.976 223.647,231.643 224.388 C 231.310 225.129,230.405 227.307,229.632 229.230 C 228.288 232.571,228.165 232.755,226.822 233.420 L 225.417 234.117 228.276 234.105 L 231.136 234.093 229.946 233.568 C 228.472 232.916,228.627 231.660,230.618 228.118 C 230.828 227.744,231.708 227.622,234.703 227.552 L 238.521 227.463 238.990 228.505 C 239.249 229.078,239.654 230.048,239.892 230.659 C 240.843 233.110,242.687 234.157,246.036 234.149 C 247.776 234.145,247.896 234.105,247.211 233.752 C 246.292 233.279,245.918 232.607,243.992 227.959 C 243.847 227.609,243.521 226.823,243.267 226.211 C 243.014 225.600,242.504 224.422,242.134 223.594 C 241.764 222.765,241.461 222.007,241.461 221.908 C 241.461 221.809,241.192 221.129,240.862 220.396 C 240.532 219.663,239.943 218.276,239.553 217.315 C 237.475 212.190,236.705 211.202,236.239 213.061 M149.881 212.760 C 150.187 212.884,150.278 215.272,150.278 223.193 L 150.278 233.466 149.404 233.785 C 148.745 234.026,149.583 234.103,152.820 234.100 C 156.018 234.098,156.846 234.021,156.076 233.799 L 155.044 233.500 155.044 227.385 C 155.044 222.364,155.132 221.143,155.538 220.563 C 155.962 219.958,155.966 219.857,155.569 219.857 C 155.203 219.857,155.082 219.227,154.995 216.871 C 154.850 212.952,154.522 212.539,151.579 212.575 C 150.427 212.589,149.662 212.672,149.881 212.760 M209.452 212.893 C 209.963 213.190,210.008 214.026,210.008 223.170 C 210.008 233.620,210.014 233.571,208.578 233.924 C 208.229 234.010,209.801 234.095,212.073 234.113 C 215.596 234.140,216.086 234.086,215.409 233.743 L 214.615 233.341 214.531 223.721 C 214.429 212.093,214.565 212.545,211.163 212.559 C 209.468 212.567,209.036 212.651,209.452 212.893 M282.208 213.025 C 281.169 214.205,282.190 216.362,283.788 216.362 C 284.589 216.362,285.624 215.226,285.624 214.346 C 285.624 212.843,283.195 211.903,282.208 213.025 M310.602 213.143 C 309.326 214.553,311.206 216.972,312.851 216.038 C 314.165 215.292,314.458 214.597,313.890 213.579 C 313.256 212.444,311.451 212.205,310.602 213.143 M335.686 213.049 C 334.892 213.843,335.054 215.307,336.006 215.931 C 337.765 217.084,339.721 215.128,338.568 213.369 C 337.944 212.417,336.480 212.254,335.686 213.049 M59.507 214.505 C 58.272 214.844,58.142 215.037,57.871 216.934 C 57.672 218.335,57.590 218.439,56.550 218.624 L 55.441 218.820 56.467 218.862 C 57.772 218.915,57.786 218.977,57.895 225.576 C 58.006 232.218,58.853 233.668,62.986 234.285 C 64.462 234.506,65.148 234.086,63.939 233.702 C 62.621 233.284,62.438 232.376,62.324 225.668 L 62.216 219.248 62.958 219.079 C 63.367 218.987,64.416 218.864,65.290 218.806 C 66.533 218.724,66.381 218.688,64.590 218.643 L 62.301 218.586 62.207 216.476 C 62.102 214.128,61.770 213.886,59.507 214.505 M269.102 214.363 C 267.834 214.604,267.221 215.386,267.001 217.042 C 266.801 218.557,266.775 218.587,265.646 218.628 L 264.496 218.670 265.608 218.866 L 266.720 219.063 266.883 224.623 C 267.068 230.940,267.473 232.211,269.696 233.453 C 271.080 234.226,273.868 234.719,273.868 234.190 C 273.868 233.996,273.676 233.836,273.441 233.836 C 272.072 233.836,271.817 232.767,271.632 226.261 C 271.419 218.793,271.365 218.968,273.951 218.821 L 275.933 218.709 273.789 218.647 C 271.404 218.579,271.629 218.871,271.530 215.727 C 271.482 214.190,271.110 213.981,269.102 214.363 M322.224 214.452 C 320.831 214.782,320.771 214.866,320.579 216.779 C 320.419 218.371,320.375 218.434,319.301 218.624 C 318.437 218.776,318.370 218.830,318.999 218.862 C 320.479 218.938,320.572 219.303,320.572 225.035 C 320.572 231.069,320.781 231.899,322.622 233.151 C 324.175 234.208,327.244 234.874,327.244 234.154 C 327.244 233.979,327.027 233.836,326.763 233.836 C 325.347 233.836,325.010 232.134,325.097 225.417 L 325.179 219.063 327.403 218.881 L 329.627 218.698 327.323 218.642 L 325.020 218.586 325.020 216.362 C 325.020 213.885,324.915 213.814,322.224 214.452 M76.125 218.501 C 69.576 219.474,68.606 230.770,74.821 233.672 C 76.114 234.276,79.597 234.684,79.295 234.196 C 79.173 233.998,78.822 233.836,78.516 233.836 C 76.699 233.836,74.662 228.537,75.904 227.041 C 76.184 226.703,76.208 226.529,75.972 226.529 C 74.991 226.529,75.821 220.197,76.961 218.983 C 77.330 218.590,77.500 218.290,77.339 218.316 C 77.177 218.342,76.631 218.425,76.125 218.501 M78.793 218.419 C 78.793 218.493,79.130 218.918,79.543 219.363 C 81.054 220.994,81.001 226.069,79.470 226.305 C 79.010 226.376,79.578 226.455,80.731 226.481 C 85.748 226.595,87.098 223.551,83.515 220.200 C 82.424 219.180,78.793 217.810,78.793 218.419 M137.569 218.566 C 130.961 219.899,129.643 230.419,135.707 233.436 C 137.278 234.218,140.982 234.792,140.614 234.196 C 140.492 233.998,140.141 233.836,139.834 233.836 C 136.139 233.836,135.545 221.402,139.126 218.994 C 140.325 218.188,139.952 218.085,137.569 218.566 M157.585 218.586 C 156.815 218.833,156.820 218.841,157.768 218.872 C 159.945 218.943,160.264 219.825,160.461 226.315 C 160.689 233.813,160.900 234.180,164.956 234.129 C 166.680 234.107,166.837 234.060,166.084 233.785 L 165.210 233.466 165.210 227.599 L 165.210 221.733 163.690 220.212 C 161.866 218.389,159.866 217.856,157.585 218.586 M175.377 218.489 C 167.658 219.792,167.730 233.303,175.461 234.206 C 176.803 234.362,176.923 234.184,176.024 233.370 C 173.875 231.425,173.861 221.604,176.005 219.303 C 176.675 218.584,176.816 218.238,176.410 218.312 C 176.279 218.336,175.814 218.415,175.377 218.489 M178.554 218.594 C 178.554 218.764,178.694 218.904,178.866 218.904 C 181.070 218.904,181.466 231.245,179.327 233.274 C 178.298 234.249,178.361 234.490,179.587 234.274 C 185.656 233.206,188.000 225.053,183.547 220.499 C 182.177 219.097,178.554 217.715,178.554 218.594 M194.414 218.564 C 186.546 220.102,187.034 233.225,194.996 234.231 C 196.027 234.362,196.410 234.051,195.600 233.740 C 193.699 233.011,192.901 223.984,194.448 220.702 C 194.846 219.856,195.365 219.091,195.600 219.000 C 196.046 218.829,196.207 218.241,195.790 218.305 C 195.659 218.325,195.040 218.442,194.414 218.564 M197.935 218.504 C 197.935 218.563,198.219 218.999,198.566 219.473 C 199.954 221.368,200.752 227.895,199.863 230.088 C 199.700 230.490,199.480 231.224,199.374 231.719 C 199.267 232.215,198.835 232.965,198.413 233.387 C 197.600 234.200,197.634 234.256,198.888 234.170 C 205.402 233.725,207.273 223.069,201.480 219.412 C 200.504 218.796,197.935 218.138,197.935 218.504 M254.805 218.489 C 247.960 219.644,246.716 230.415,253.058 233.609 C 254.306 234.237,257.844 234.702,257.532 234.196 C 257.410 233.998,257.045 233.836,256.721 233.836 C 254.939 233.836,254.039 231.400,254.023 226.529 C 254.006 221.191,254.520 219.689,256.712 218.678 L 257.506 218.311 256.553 218.333 C 256.029 218.345,255.242 218.415,254.805 218.489 M352.343 218.448 C 352.343 218.538,352.658 219.038,353.043 219.559 C 354.453 221.466,354.245 226.073,352.739 226.302 C 352.259 226.374,352.768 226.455,353.870 226.481 C 357.499 226.568,358.697 226.070,358.697 224.475 C 358.697 222.267,357.345 220.153,355.265 219.107 C 354.325 218.635,352.343 218.188,352.343 218.448 M365.481 218.496 C 360.560 219.114,360.974 224.531,366.147 227.207 C 370.031 229.216,370.770 229.923,370.770 231.624 C 370.770 232.760,370.033 233.836,369.255 233.836 C 369.061 233.836,368.800 234.000,368.677 234.200 C 368.364 234.707,372.187 234.259,373.362 233.652 C 377.709 231.404,376.232 227.768,369.624 224.453 C 366.830 223.051,365.900 220.886,367.434 219.352 C 368.596 218.190,368.445 218.123,365.481 218.496 M88.801 218.809 C 90.130 219.120,90.230 219.666,90.230 226.605 L 90.230 233.232 89.198 233.680 C 88.241 234.096,88.468 234.128,92.295 234.117 C 95.441 234.107,96.217 234.028,95.552 233.785 L 94.678 233.466 94.678 227.565 C 94.678 221.695,94.683 221.659,95.507 220.577 C 96.232 219.627,96.252 219.543,95.666 219.909 C 95.298 220.139,94.996 220.436,94.996 220.569 C 94.996 221.086,94.046 220.775,93.711 220.148 C 93.221 219.233,91.495 218.579,89.685 218.623 C 88.849 218.643,88.451 218.727,88.801 218.809 M98.173 218.869 C 98.906 219.072,98.975 219.253,99.061 221.221 C 99.168 223.629,100.211 224.207,101.656 222.657 C 103.293 220.899,101.753 218.590,98.967 218.628 C 97.801 218.644,97.590 218.708,98.173 218.869 M142.653 221.048 L 142.812 223.511 143.713 223.447 C 145.846 223.297,146.299 220.807,144.450 219.397 C 142.678 218.045,142.471 218.236,142.653 221.048 M259.571 221.048 L 259.730 223.511 260.790 223.426 C 263.369 223.221,263.445 220.429,260.911 218.983 C 259.538 218.200,259.401 218.411,259.571 221.048 M280.381 218.809 C 281.711 219.120,281.811 219.666,281.811 226.605 L 281.811 233.232 280.778 233.680 C 279.826 234.094,280.079 234.127,284.035 234.098 C 286.394 234.081,288.013 234.007,287.632 233.933 C 286.394 233.692,286.299 233.195,286.198 226.421 L 286.100 219.820 285.306 219.210 C 284.675 218.726,284.021 218.606,282.129 218.630 C 280.818 218.646,280.032 218.727,280.381 218.809 M289.016 218.807 C 290.108 219.020,289.896 218.666,295.687 229.944 C 297.980 234.411,298.353 234.761,299.074 233.122 C 299.323 232.554,299.759 231.567,300.042 230.929 C 300.325 230.291,300.556 229.682,300.556 229.575 C 300.556 229.469,300.825 228.775,301.153 228.035 C 301.481 227.294,302.068 225.902,302.457 224.940 C 302.846 223.979,303.344 222.764,303.564 222.240 C 303.784 221.716,304.099 220.945,304.263 220.527 C 304.447 220.057,305.099 219.549,305.974 219.195 L 307.387 218.622 304.527 218.624 C 301.679 218.627,301.672 218.629,302.701 219.141 C 304.111 219.843,304.089 220.123,302.305 224.146 C 301.917 225.020,301.407 226.275,301.170 226.936 C 300.524 228.738,300.015 228.337,298.044 224.473 C 295.317 219.126,294.586 218.553,290.589 218.629 C 289.343 218.653,288.635 218.733,289.016 218.807 M309.134 218.870 L 309.929 219.091 310.014 226.276 L 310.099 233.462 309.220 233.783 C 308.549 234.028,309.319 234.104,312.470 234.104 C 315.604 234.104,316.390 234.027,315.727 233.785 L 314.853 233.466 314.853 227.153 C 314.853 218.867,314.693 218.555,310.470 218.618 C 309.076 218.639,308.615 218.726,309.134 218.870 M333.757 218.816 C 335.158 219.161,335.187 219.310,335.187 226.370 C 335.187 233.430,335.158 233.580,333.757 233.924 C 333.407 234.010,335.052 234.080,337.411 234.080 C 339.770 234.080,341.414 234.010,341.064 233.924 C 339.667 233.581,339.635 233.415,339.635 226.634 L 339.635 220.144 338.794 219.365 C 338.045 218.671,337.689 218.590,335.537 218.623 C 334.209 218.643,333.407 218.730,333.757 218.816 M347.422 219.399 C 345.303 220.837,344.754 221.718,344.108 224.721 C 343.314 228.413,345.013 232.292,348.029 233.670 C 349.357 234.277,352.829 234.683,352.528 234.196 C 352.406 233.998,352.055 233.836,351.748 233.836 C 348.872 233.836,347.629 223.146,350.058 219.301 C 350.722 218.250,349.022 218.313,347.422 219.399 M373.471 219.095 C 373.122 219.363,372.624 219.704,372.366 219.853 C 371.954 220.089,371.958 220.195,372.399 220.705 C 372.676 221.025,373.101 221.751,373.343 222.319 C 374.191 224.300,374.901 223.685,374.901 220.969 C 374.901 218.436,374.689 218.159,373.471 219.095 M29.405 219.619 C 29.525 220.012,29.874 220.905,30.181 221.604 C 32.817 227.604,32.930 227.164,28.753 227.164 C 24.747 227.164,24.863 227.453,26.890 222.502 C 28.344 218.950,28.979 218.222,29.405 219.619 M235.610 220.241 C 235.834 220.889,236.259 221.961,236.553 222.624 C 238.647 227.335,238.790 226.988,234.710 227.096 C 231.191 227.189,230.371 226.747,231.561 225.401 C 231.708 225.235,232.016 224.599,232.246 223.987 C 232.476 223.376,233.000 222.120,233.409 221.198 C 233.819 220.275,234.154 219.371,234.154 219.189 C 234.154 218.387,235.241 219.172,235.610 220.241 M112.788 231.430 C 112.788 234.421,113.023 234.719,114.253 233.287 C 114.988 232.432,115.011 232.428,115.928 232.970 C 117.310 233.786,117.506 233.635,116.351 232.645 C 115.791 232.164,114.998 231.128,114.591 230.342 C 113.324 227.900,112.788 228.224,112.788 231.430 M361.557 231.748 C 361.557 234.378,361.790 234.643,363.059 233.451 C 363.688 232.860,363.906 232.809,364.425 233.133 C 365.562 233.843,365.666 233.529,364.639 232.486 C 364.079 231.918,363.403 231.026,363.134 230.503 C 362.155 228.592,361.557 229.064,361.557 231.748 M277.119 230.977 C 277.119 231.589,277.184 231.839,277.264 231.533 C 277.344 231.227,277.344 230.727,277.264 230.421 C 277.184 230.115,277.119 230.365,277.119 230.977 M82.864 232.635 C 82.394 233.121,82.119 233.519,82.252 233.519 C 82.554 233.519,84.034 231.966,83.851 231.842 C 83.777 231.792,83.333 232.149,82.864 232.635 M261.100 232.645 C 260.631 233.125,260.381 233.519,260.544 233.519 C 260.943 233.519,262.179 232.266,262.053 231.990 C 261.999 231.870,261.570 232.164,261.100 232.645 " stroke="none" fill="#2a3995" fill-rule="evenodd"></path><path id="path3" d="M196.187 106.084 C 191.116 108.437,190.384 115.566,194.875 118.871 C 195.670 119.457,196.327 120.023,196.334 120.128 C 196.341 120.233,193.385 120.422,189.766 120.547 C 182.139 120.812,182.685 120.650,182.685 122.650 L 182.685 124.214 189.913 124.299 L 197.141 124.384 197.234 126.894 L 197.328 129.403 191.118 135.641 C 184.391 142.399,184.337 142.475,186.100 142.767 C 188.943 143.237,188.801 143.321,194.112 138.046 C 196.840 135.338,199.168 133.122,199.286 133.122 C 199.404 133.122,201.543 135.124,204.039 137.570 C 209.017 142.449,209.805 142.971,212.201 142.971 C 214.602 142.971,214.462 142.753,207.479 135.624 L 201.138 129.150 201.125 126.847 C 201.109 124.052,199.985 124.445,208.578 124.241 L 215.886 124.067 215.821 122.667 C 215.730 120.718,215.968 120.788,208.658 120.540 C 202.015 120.314,201.342 120.172,202.939 119.336 C 208.134 116.615,207.701 108.568,202.224 106.073 C 200.562 105.316,197.832 105.321,196.187 106.084 M202.428 106.779 C 207.600 109.399,207.406 115.857,202.046 119.512 C 200.582 120.510,201.627 120.736,208.681 120.947 L 215.409 121.149 215.409 122.370 L 215.409 123.590 213.264 123.602 C 208.649 123.627,201.356 123.916,201.082 124.085 C 200.924 124.183,200.795 125.434,200.796 126.865 L 200.797 129.468 207.137 135.862 C 210.624 139.379,213.405 142.327,213.318 142.414 C 213.050 142.682,210.212 142.273,209.373 141.846 C 208.936 141.623,206.580 139.498,204.138 137.123 C 201.696 134.747,199.478 132.804,199.209 132.804 C 198.941 132.804,196.580 134.948,193.963 137.569 L 189.206 142.335 187.348 142.335 C 184.963 142.335,184.700 142.735,191.819 135.550 L 197.935 129.376 197.930 127.039 C 197.923 123.710,198.450 123.938,190.212 123.699 C 186.247 123.583,183.002 123.386,183.002 123.261 C 183.002 123.136,183.092 122.587,183.201 122.041 L 183.400 121.048 187.411 121.021 C 194.291 120.973,198.692 120.450,197.076 119.872 C 196.008 119.489,194.493 118.173,193.613 116.864 C 189.558 110.831,195.963 103.503,202.428 106.779 M199.522 110.164 C 200.133 110.238,200.848 110.465,201.111 110.669 C 201.527 110.993,201.532 110.969,201.153 110.485 C 200.863 110.115,200.330 109.946,199.564 109.979 L 198.411 110.030 199.522 110.164 M201.327 113.632 C 201.212 113.747,201.288 114.047,201.496 114.298 C 201.800 114.664,201.722 114.881,201.096 115.399 L 200.318 116.043 201.112 115.571 C 201.571 115.298,201.949 114.745,202.007 114.261 C 202.102 113.467,201.785 113.174,201.327 113.632 M48.928 211.853 C 46.524 212.519,44.855 214.235,44.623 216.280 L 44.488 217.474 44.881 216.145 C 45.543 213.905,47.278 212.546,50.040 212.104 C 51.156 211.925,51.243 211.953,50.758 212.337 C 49.840 213.062,49.245 214.953,49.245 217.146 L 49.245 219.222 51.708 219.279 L 54.170 219.336 51.787 219.517 L 49.404 219.698 49.318 226.330 C 49.228 233.327,49.286 233.649,50.696 233.918 C 51.591 234.089,51.507 233.913,50.442 233.383 C 49.734 233.030,49.721 232.919,49.636 226.599 L 49.550 220.175 51.701 220.170 C 53.941 220.165,54.882 219.859,54.510 219.257 C 54.381 219.048,53.307 218.904,51.881 218.904 L 49.470 218.904 49.676 216.464 C 50.069 211.813,52.324 210.648,52.489 215.012 L 52.581 217.474 53.535 217.504 C 54.384 217.530,54.395 217.520,53.638 217.406 C 52.808 217.282,52.785 217.218,52.684 214.731 L 52.581 212.183 53.525 212.372 C 54.177 212.503,54.366 212.460,54.138 212.231 C 53.729 211.823,50.010 211.553,48.928 211.853 M118.030 211.894 C 110.586 213.171,111.197 220.474,119.134 225.081 C 123.738 227.754,124.833 229.615,123.288 232.149 C 121.511 235.062,116.420 233.684,114.711 229.827 C 113.456 226.994,112.470 227.731,112.470 231.502 C 112.470 234.598,112.885 235.101,114.316 233.744 L 115.171 232.933 116.283 233.517 C 116.933 233.858,117.791 234.043,118.348 233.962 C 119.110 233.852,119.174 233.882,118.666 234.110 C 117.708 234.541,119.998 234.915,122.307 234.706 C 124.691 234.490,130.066 231.930,128.137 231.930 C 127.951 231.930,127.630 232.132,127.425 232.379 C 126.453 233.551,119.874 235.283,120.550 234.190 C 120.670 233.996,121.081 233.832,121.464 233.826 C 122.965 233.804,124.226 232.050,124.226 229.983 C 124.226 228.398,122.595 226.473,120.227 225.261 C 110.651 220.362,111.065 211.562,120.854 211.940 C 121.397 211.961,121.334 212.050,120.525 212.404 C 117.928 213.543,117.371 216.409,119.327 218.573 C 120.418 219.781,124.190 222.399,124.840 222.399 C 126.865 222.399,129.650 227.629,128.876 229.980 C 128.292 231.753,128.479 232.155,129.146 230.559 C 130.517 227.277,128.825 224.563,123.272 221.142 C 117.288 217.455,116.643 213.659,121.790 212.423 C 122.342 212.290,122.617 212.325,122.500 212.514 C 122.396 212.683,122.633 212.924,123.028 213.049 C 123.975 213.350,125.367 214.920,126.188 216.613 C 126.551 217.362,126.904 217.920,126.971 217.853 C 127.229 217.595,126.090 215.383,125.146 214.309 C 124.118 213.138,124.124 212.918,125.165 213.568 C 125.689 213.895,125.896 213.825,126.576 213.092 C 127.801 211.769,127.963 212.010,127.920 215.091 C 127.897 216.664,127.986 217.951,128.118 217.951 C 128.249 217.951,128.356 216.660,128.356 215.081 C 128.356 211.730,127.968 211.253,126.436 212.721 C 125.556 213.564,125.476 213.583,124.912 213.073 C 124.545 212.740,124.098 212.619,123.743 212.755 C 123.360 212.902,123.241 212.857,123.387 212.621 C 123.862 211.853,120.739 211.429,118.030 211.894 M29.987 213.083 C 29.712 213.751,29.303 214.726,29.078 215.250 C 28.854 215.774,28.352 216.990,27.964 217.951 C 27.575 218.912,27.067 220.127,26.835 220.651 C 26.603 221.176,25.756 223.230,24.952 225.218 C 24.149 227.205,23.231 229.421,22.912 230.142 C 22.594 230.863,22.243 231.710,22.132 232.024 C 22.022 232.338,21.438 232.800,20.836 233.052 C 20.234 233.303,19.655 233.650,19.548 233.822 C 19.442 233.994,19.968 233.864,20.718 233.533 L 22.081 232.932 26.370 222.590 C 31.168 211.020,31.224 210.951,32.539 214.899 C 32.649 215.229,32.812 215.427,32.902 215.338 C 32.991 215.248,32.791 214.477,32.457 213.624 C 31.647 211.554,30.702 211.347,29.987 213.083 M148.901 212.126 C 148.525 212.502,148.675 212.820,149.325 213.026 C 149.993 213.238,150.367 233.201,149.703 233.201 C 149.562 233.201,149.169 233.413,148.830 233.673 C 148.265 234.105,148.301 234.116,149.245 233.801 L 150.278 233.457 150.278 223.188 C 150.278 215.271,150.187 212.884,149.881 212.760 C 149.662 212.672,150.427 212.589,151.579 212.575 C 154.522 212.539,154.850 212.952,154.995 216.871 C 155.082 219.227,155.203 219.857,155.569 219.857 C 155.966 219.857,155.962 219.958,155.538 220.563 C 155.113 221.171,154.719 233.519,155.125 233.519 C 155.170 233.519,155.690 233.657,156.280 233.827 C 157.430 234.156,157.413 233.967,156.241 233.383 C 155.242 232.885,154.959 222.488,155.896 220.729 C 156.198 220.162,156.426 219.623,156.404 219.531 C 156.316 219.178,158.862 219.418,159.246 219.799 C 159.468 220.019,159.827 220.802,160.044 221.538 L 160.437 222.875 160.295 221.638 C 160.114 220.070,159.056 218.913,157.768 218.877 L 156.791 218.849 157.744 218.548 C 159.806 217.897,161.975 218.498,163.665 220.188 C 165.327 221.850,165.759 221.829,164.350 220.154 C 162.586 218.057,159.184 217.344,156.867 218.586 C 156.215 218.936,155.609 219.222,155.521 219.222 C 155.433 219.222,155.347 218.185,155.330 216.918 C 155.286 213.768,155.060 213.123,153.764 212.471 C 152.679 211.924,149.340 211.688,148.901 212.126 M208.259 212.235 C 208.011 212.636,208.598 213.172,209.293 213.180 C 209.602 213.184,209.690 215.375,209.690 223.062 L 209.690 232.938 208.737 233.298 C 207.627 233.717,207.451 234.176,208.499 233.920 C 210.030 233.545,210.008 233.700,210.008 223.170 C 210.008 214.026,209.963 213.190,209.452 212.893 C 209.036 212.651,209.468 212.567,211.163 212.559 C 214.565 212.545,214.429 212.092,214.531 223.727 L 214.615 233.352 215.513 233.782 C 216.006 234.018,216.494 234.128,216.597 234.026 C 216.699 233.923,216.331 233.682,215.778 233.489 L 214.774 233.139 214.774 223.497 L 214.774 213.856 214.014 212.972 C 213.152 211.971,208.769 211.409,208.259 212.235 M236.861 212.215 C 237.470 212.462,237.907 213.292,239.549 217.315 C 239.941 218.276,240.532 219.663,240.862 220.396 C 241.192 221.129,241.461 221.809,241.461 221.908 C 241.461 222.007,241.764 222.765,242.134 223.594 C 242.504 224.422,243.014 225.600,243.267 226.211 C 243.521 226.823,243.847 227.609,243.992 227.959 C 244.137 228.308,244.627 229.420,245.082 230.430 C 245.537 231.439,245.909 232.382,245.909 232.525 C 245.909 232.892,246.903 233.701,247.657 233.948 C 248.321 234.165,248.172 234.011,246.778 233.042 C 246.527 232.867,245.061 229.651,243.521 225.894 C 241.982 222.137,240.388 218.321,239.980 217.415 C 239.571 216.509,239.237 215.691,239.237 215.598 C 239.237 214.618,237.533 211.917,236.925 211.934 C 236.246 211.954,236.244 211.964,236.861 212.215 M282.497 212.423 C 280.778 213.627,281.134 216.093,283.089 216.523 C 285.697 217.095,287.025 213.608,284.664 212.387 C 283.520 211.796,283.389 211.798,282.497 212.423 M311.138 212.294 C 310.755 212.479,310.356 212.854,310.251 213.128 C 310.095 213.535,310.174 213.523,310.679 213.065 C 312.122 211.760,315.010 213.437,314.027 215.009 C 312.917 216.787,310.613 216.450,310.047 214.427 L 309.833 213.662 309.801 214.391 C 309.717 216.332,312.392 217.312,313.756 215.839 C 315.522 213.934,313.477 211.164,311.138 212.294 M336.458 212.140 C 334.207 212.967,334.323 216.091,336.621 216.542 C 338.411 216.893,339.798 215.125,339.120 213.358 C 338.957 212.934,337.362 211.852,337.029 211.939 C 336.977 211.953,336.720 212.043,336.458 212.140 M54.657 212.754 C 54.651 212.954,54.853 213.196,55.106 213.293 C 55.848 213.578,56.075 215.598,55.469 216.522 C 54.879 217.423,54.998 217.554,55.736 216.816 C 56.501 216.051,56.361 214.317,55.451 213.282 C 55.020 212.792,54.662 212.554,54.657 212.754 M235.659 213.741 C 235.372 214.396,234.909 215.504,234.631 216.203 C 234.065 217.626,233.822 218.204,233.047 219.962 C 232.752 220.632,232.591 221.259,232.688 221.357 C 232.786 221.454,233.012 221.148,233.192 220.676 C 233.665 219.431,234.780 216.718,235.422 215.250 C 236.078 213.750,236.469 212.550,236.302 212.550 C 236.236 212.550,235.947 213.086,235.659 213.741 M285.042 213.075 C 286.161 214.087,285.292 216.362,283.788 216.362 C 282.190 216.362,281.169 214.205,282.208 213.025 C 282.752 212.408,284.336 212.436,285.042 213.075 M338.568 213.369 C 339.721 215.128,337.765 217.084,336.006 215.931 C 335.054 215.307,334.892 213.843,335.686 213.049 C 336.480 212.254,337.944 212.417,338.568 213.369 M61.290 214.181 C 60.943 214.414,60.986 214.461,61.477 214.390 C 62.052 214.306,62.122 214.503,62.207 216.442 L 62.301 218.586 64.431 218.526 L 66.561 218.466 64.734 218.351 L 62.907 218.237 62.903 216.902 C 62.895 214.467,62.316 213.490,61.290 214.181 M58.164 214.975 C 57.761 215.489,57.506 216.279,57.506 217.020 C 57.506 218.144,57.436 218.235,56.498 218.328 C 55.301 218.446,54.857 219.222,55.986 219.222 C 57.389 219.222,57.506 219.669,57.506 225.014 C 57.506 231.597,57.947 232.704,61.160 234.188 C 63.776 235.397,67.617 234.535,67.426 232.782 C 67.378 232.340,67.472 231.895,67.635 231.795 C 67.802 231.692,67.853 231.911,67.752 232.297 C 67.624 232.787,67.684 232.914,67.963 232.741 C 68.221 232.582,68.292 232.054,68.173 231.183 C 68.037 230.187,68.069 230.020,68.307 230.500 C 68.573 231.040,68.609 231.049,68.544 230.563 C 68.412 229.582,67.949 229.813,67.515 231.077 C 66.921 232.805,66.168 233.519,64.941 233.519 C 63.062 233.519,62.907 232.936,62.907 225.857 C 62.907 218.820,62.752 219.222,65.475 219.222 C 66.334 219.222,67.037 219.114,67.038 218.983 C 67.038 218.736,64.257 218.807,62.958 219.087 L 62.216 219.248 62.324 225.668 C 62.438 232.376,62.621 233.284,63.939 233.702 C 65.148 234.086,64.462 234.506,62.986 234.285 C 58.853 233.668,58.006 232.218,57.895 225.576 C 57.786 218.977,57.772 218.915,56.467 218.862 L 55.441 218.820 56.550 218.624 C 57.590 218.439,57.672 218.335,57.871 216.934 C 58.141 215.040,58.270 214.847,59.507 214.490 C 60.486 214.207,60.492 214.194,59.674 214.167 C 59.111 214.148,58.600 214.421,58.164 214.975 M267.904 214.351 C 267.299 214.594,266.561 216.204,266.561 217.278 C 266.561 218.069,266.415 218.248,265.687 218.359 C 264.841 218.487,264.845 218.492,265.805 218.539 C 266.760 218.584,266.804 218.529,267.001 217.042 C 267.221 215.384,267.838 214.599,269.102 214.369 L 269.897 214.225 269.102 214.207 C 268.666 214.197,268.126 214.261,267.904 214.351 M271.535 215.727 C 271.562 216.600,271.598 217.601,271.614 217.951 C 271.638 218.460,271.849 218.577,272.677 218.539 C 273.638 218.494,273.649 218.482,272.836 218.359 C 271.987 218.230,271.962 218.168,271.962 216.182 C 271.962 215.058,271.855 214.138,271.724 214.138 C 271.593 214.138,271.508 214.853,271.535 215.727 M320.890 214.774 C 320.540 215.123,320.252 215.731,320.250 216.124 C 320.241 217.575,319.886 218.231,319.055 218.330 C 317.886 218.469,317.833 219.103,318.971 219.330 C 319.709 219.478,319.936 219.694,319.933 220.246 C 319.905 225.889,320.220 230.625,320.684 231.522 C 322.477 234.990,328.412 235.911,330.309 233.015 C 330.987 231.981,331.135 229.696,330.508 229.936 C 330.024 230.122,329.963 231.513,330.432 231.669 C 330.630 231.735,330.567 232.030,330.272 232.410 C 329.785 233.040,329.785 233.040,329.970 232.407 C 330.111 231.922,329.992 231.978,329.467 232.645 C 328.932 233.324,328.511 233.519,327.571 233.519 C 325.557 233.519,325.305 232.567,325.410 225.354 L 325.496 219.380 327.562 219.189 L 329.627 218.997 327.403 219.030 L 325.179 219.063 325.097 225.417 C 325.010 232.134,325.347 233.836,326.763 233.836 C 327.027 233.836,327.244 233.979,327.244 234.154 C 327.244 234.874,324.175 234.208,322.622 233.151 C 320.781 231.899,320.572 231.069,320.572 225.035 C 320.572 219.303,320.479 218.938,318.999 218.862 C 318.370 218.830,318.437 218.776,319.301 218.624 C 320.375 218.434,320.419 218.371,320.579 216.779 C 320.771 214.866,320.831 214.782,322.224 214.452 C 323.219 214.216,323.228 214.202,322.399 214.171 C 321.913 214.153,321.243 214.420,320.890 214.774 M325.081 216.283 C 325.028 218.290,325.091 218.586,325.576 218.581 C 325.952 218.578,326.009 218.498,325.752 218.335 C 325.543 218.202,325.320 217.168,325.257 216.036 L 325.142 213.979 325.081 216.283 M33.209 216.362 C 33.340 216.799,33.856 218.054,34.356 219.150 C 34.857 220.247,35.266 221.221,35.266 221.315 C 35.266 221.409,35.624 222.268,36.060 223.223 C 36.497 224.178,36.855 225.041,36.855 225.140 C 36.855 225.240,37.066 225.771,37.324 226.322 C 37.582 226.873,38.354 228.670,39.041 230.317 C 40.470 233.745,41.201 234.392,43.133 233.935 C 43.760 233.786,44.330 233.492,44.400 233.280 C 44.492 233.005,44.203 233.031,43.388 233.372 C 41.161 234.302,40.936 233.992,37.039 224.575 C 33.945 217.099,32.503 214.007,33.209 216.362 M75.616 218.300 C 75.257 218.554,75.446 218.596,76.374 218.467 L 77.608 218.294 76.949 218.996 C 75.819 220.199,74.998 226.529,75.972 226.529 C 76.208 226.529,76.184 226.703,75.904 227.041 C 74.662 228.537,76.699 233.836,78.516 233.836 C 78.822 233.836,79.171 233.996,79.291 234.190 C 79.448 234.443,78.931 234.491,77.483 234.360 C 76.163 234.241,75.734 234.272,76.251 234.451 C 77.973 235.047,82.356 234.726,80.835 234.115 C 80.358 233.924,80.433 233.879,81.176 233.914 C 83.016 233.999,84.554 232.483,84.319 230.815 C 84.209 230.032,84.238 229.977,84.485 230.500 C 84.732 231.025,84.788 231.042,84.807 230.599 C 84.819 230.303,84.686 229.973,84.511 229.865 C 84.139 229.635,83.465 231.204,83.742 231.653 C 83.984 232.044,83.260 232.932,82.887 232.702 C 82.732 232.606,82.447 232.626,82.254 232.745 C 82.002 232.901,82.000 233.023,82.246 233.176 C 82.847 233.547,78.505 233.557,77.812 233.186 C 76.875 232.685,75.948 230.450,75.940 228.674 L 75.933 227.164 77.919 227.137 C 79.011 227.121,80.620 226.997,81.493 226.861 L 83.082 226.614 80.858 226.524 C 79.635 226.474,79.010 226.376,79.470 226.305 C 81.001 226.069,81.054 220.994,79.543 219.363 C 78.572 218.315,78.592 218.249,79.825 218.466 C 84.411 219.273,87.499 224.902,84.035 226.139 L 83.082 226.479 83.933 226.504 C 86.577 226.582,86.272 221.868,83.496 219.751 C 81.321 218.091,77.021 217.299,75.616 218.300 M136.344 218.548 C 127.177 222.268,131.802 236.479,141.582 234.644 L 142.790 234.417 140.736 233.730 C 137.531 232.657,136.048 227.035,137.578 221.763 C 138.243 219.473,141.939 217.537,142.054 219.419 C 142.074 219.747,142.134 220.761,142.187 221.672 C 142.331 224.153,143.532 224.832,145.135 223.339 C 146.445 222.119,145.437 218.572,143.785 218.590 C 143.599 218.592,143.912 218.959,144.480 219.407 C 146.293 220.836,145.826 223.298,143.713 223.447 L 142.812 223.511 142.653 221.048 C 142.521 219.001,142.575 218.584,142.971 218.581 C 143.394 218.577,143.394 218.542,142.971 218.268 C 142.164 217.747,137.870 217.929,136.344 218.548 M174.344 218.404 C 172.035 219.228,169.595 221.852,169.681 223.419 C 169.693 223.644,169.960 223.257,170.274 222.558 C 171.269 220.340,173.148 218.900,175.616 218.466 C 176.821 218.254,176.875 218.369,176.005 219.303 C 174.682 220.723,173.799 228.174,174.688 230.417 C 174.808 230.721,174.915 228.934,174.926 226.446 C 174.954 219.804,176.405 217.291,178.950 219.476 C 179.812 220.217,180.216 221.928,180.466 225.894 L 180.696 229.547 180.638 225.576 C 180.581 221.605,179.863 218.904,178.866 218.904 C 178.694 218.904,178.554 218.764,178.554 218.594 C 178.554 218.419,179.004 218.363,179.587 218.466 C 182.541 218.986,184.712 220.984,185.411 223.828 C 185.582 224.521,185.682 224.625,185.780 224.210 C 186.665 220.447,179.217 216.665,174.344 218.404 M193.261 218.511 C 190.986 219.467,187.957 223.329,188.811 224.183 C 188.911 224.283,189.133 223.855,189.305 223.232 C 189.969 220.830,192.254 218.869,194.837 218.485 C 195.981 218.316,196.490 218.659,195.600 219.000 C 192.957 220.015,193.064 232.932,195.722 233.781 C 196.079 233.894,196.059 233.784,195.640 233.311 C 193.314 230.685,193.612 220.592,196.059 219.116 C 198.334 217.743,200.214 222.478,199.690 228.261 C 199.545 229.856,199.582 230.363,199.818 230.024 C 200.814 228.590,199.957 221.372,198.566 219.473 C 197.747 218.356,197.737 218.373,199.122 218.535 C 205.755 219.309,207.185 230.723,200.997 233.504 C 199.408 234.219,197.981 234.486,197.750 234.111 C 197.656 233.960,197.733 233.836,197.921 233.836 C 198.397 233.836,199.526 231.904,199.498 231.136 C 199.482 230.694,199.362 230.811,199.102 231.524 C 198.564 232.999,197.741 233.836,196.826 233.836 C 196.387 233.836,196.029 233.955,196.029 234.099 C 196.029 234.464,194.168 234.193,192.963 233.651 C 190.417 232.507,189.142 230.363,188.727 226.529 L 188.503 224.464 188.453 226.279 C 188.171 236.544,203.922 238.186,205.118 228.015 C 205.982 220.666,199.843 215.745,193.261 218.511 M253.734 218.417 C 251.030 219.381,248.797 222.198,248.815 224.623 C 248.822 225.603,248.871 225.534,249.233 224.039 C 250.054 220.648,252.178 218.802,255.669 218.448 C 257.268 218.286,257.403 218.312,256.712 218.653 C 255.532 219.234,254.513 220.515,254.291 221.699 C 253.991 223.294,254.358 223.249,254.763 221.641 C 255.220 219.826,256.406 218.837,257.966 218.968 L 259.095 219.063 259.191 221.116 C 259.297 223.384,259.611 223.987,260.687 223.987 C 261.410 223.987,263.231 222.747,262.536 222.727 C 262.333 222.721,262.118 222.855,262.060 223.023 C 262.002 223.192,261.454 223.371,260.842 223.420 L 259.730 223.511 259.571 221.048 C 259.401 218.411,259.538 218.200,260.911 218.983 C 262.038 219.626,262.723 220.585,262.785 221.604 L 262.843 222.558 262.978 221.663 C 263.405 218.818,257.967 216.908,253.734 218.417 M348.142 218.555 C 343.625 220.665,342.085 227.160,345.071 231.504 C 345.971 232.813,348.074 234.399,348.432 234.040 C 348.535 233.938,348.277 233.724,347.860 233.565 C 343.831 232.029,342.555 223.881,345.830 220.606 C 347.651 218.785,351.046 217.737,350.058 219.301 C 347.629 223.146,348.872 233.836,351.748 233.836 C 352.055 233.836,352.404 233.996,352.524 234.190 C 352.681 234.443,352.166 234.489,350.716 234.350 C 349.367 234.221,348.902 234.255,349.325 234.451 C 350.076 234.798,353.320 234.882,354.121 234.575 C 354.640 234.376,354.636 234.342,354.067 234.092 C 353.629 233.900,353.745 233.868,354.475 233.979 C 355.037 234.064,355.572 234.010,355.665 233.859 C 355.942 233.411,354.940 233.196,354.088 233.520 C 351.583 234.472,349.166 231.955,349.166 228.395 L 349.166 227.164 351.152 227.137 C 352.244 227.121,353.852 226.997,354.726 226.861 L 356.315 226.614 354.885 226.569 C 354.098 226.545,352.473 226.432,351.272 226.318 L 349.089 226.112 349.235 223.831 C 349.488 219.886,351.055 217.889,352.597 219.544 C 353.792 220.826,353.877 225.689,352.710 225.998 C 352.347 226.094,352.404 226.149,352.893 226.174 C 354.254 226.245,354.365 221.347,353.043 219.559 C 352.129 218.323,352.152 218.248,353.376 218.481 C 357.647 219.293,360.860 225.256,357.506 226.147 C 356.664 226.370,356.531 226.473,357.050 226.496 C 358.981 226.582,359.640 224.607,358.550 221.999 C 357.179 218.718,351.685 216.900,348.142 218.555 M364.227 218.556 C 359.799 220.567,360.856 224.845,366.511 227.804 C 370.198 229.733,371.403 231.569,369.942 233.031 C 369.356 233.617,365.300 233.648,364.350 233.075 C 363.932 232.823,363.635 232.909,363.059 233.451 C 361.790 234.643,361.557 234.378,361.557 231.748 C 361.557 229.071,362.147 228.598,363.134 230.482 C 363.757 231.670,365.066 233.201,365.460 233.201 C 365.626 233.201,365.317 232.745,364.772 232.188 C 364.227 231.630,363.780 231.022,363.779 230.837 C 363.778 230.652,363.438 230.076,363.022 229.557 C 361.833 228.070,361.239 228.824,361.239 231.820 C 361.239 234.550,361.654 234.989,363.174 233.865 C 364.024 233.237,364.173 233.217,364.786 233.646 C 365.185 233.926,365.866 234.059,366.448 233.972 C 367.170 233.864,367.270 233.896,366.822 234.092 C 365.012 234.885,370.266 235.057,372.586 234.281 C 377.878 232.511,377.247 228.366,371.155 224.877 C 369.633 224.005,368.066 222.995,367.673 222.631 C 366.126 221.201,367.310 218.605,369.294 219.073 C 369.844 219.203,370.637 219.303,371.057 219.296 C 371.517 219.288,371.669 219.377,371.440 219.519 C 371.157 219.693,371.192 219.866,371.574 220.183 C 371.858 220.419,372.431 221.282,372.846 222.101 C 374.274 224.919,375.297 224.326,375.154 220.763 C 375.048 218.137,374.511 217.628,373.174 218.885 L 372.457 219.558 371.058 218.758 C 369.287 217.746,366.211 217.655,364.227 218.556 M90.412 218.584 C 92.317 218.864,93.269 219.322,93.729 220.182 C 94.076 220.830,94.996 221.056,94.996 220.492 C 94.996 220.318,95.155 220.175,95.350 220.175 C 95.568 220.175,95.507 220.477,95.191 220.958 C 94.766 221.607,94.678 222.741,94.678 227.599 L 94.678 233.457 95.683 233.807 C 96.236 233.999,96.759 234.085,96.846 233.998 C 96.934 233.911,96.553 233.682,96.001 233.489 L 94.996 233.139 94.996 227.331 C 94.996 222.677,95.086 221.448,95.451 221.146 C 95.899 220.774,96.016 219.539,95.603 219.539 C 95.487 219.539,95.210 219.758,94.988 220.025 C 94.631 220.456,94.512 220.434,93.951 219.832 C 93.078 218.894,91.436 218.261,90.002 218.308 C 88.902 218.344,88.936 218.368,90.412 218.584 M99.126 218.488 C 102.703 218.867,103.584 223.352,100.082 223.352 C 99.160 223.352,99.155 223.341,99.061 221.229 C 98.962 218.993,98.037 218.097,96.636 218.882 C 96.068 219.199,95.830 220.273,96.372 220.074 C 96.576 219.998,96.716 219.799,96.682 219.632 C 96.648 219.465,97.044 219.328,97.563 219.328 C 98.501 219.328,98.956 220.006,98.795 221.165 C 98.468 223.504,99.171 224.248,100.987 223.485 C 103.818 222.294,102.544 218.201,99.379 218.319 C 98.120 218.366,98.100 218.379,99.126 218.488 M139.126 218.994 C 135.545 221.402,136.139 233.836,139.834 233.836 C 140.141 233.836,140.492 233.998,140.614 234.196 C 140.982 234.792,137.278 234.218,135.707 233.436 C 129.643 230.419,130.961 219.899,137.569 218.566 C 139.952 218.085,140.325 218.188,139.126 218.994 M274.980 218.586 C 275.741 218.780,275.534 218.836,273.959 218.866 C 271.372 218.916,271.419 218.767,271.632 226.261 C 271.817 232.767,272.072 233.836,273.441 233.836 C 273.676 233.836,273.868 233.996,273.868 234.190 C 273.868 234.719,271.080 234.226,269.696 233.453 C 267.473 232.211,267.068 230.940,266.883 224.623 L 266.720 219.063 265.608 219.008 C 264.526 218.954,264.522 218.959,265.449 219.169 L 266.402 219.385 266.561 224.784 C 266.787 232.466,268.313 234.790,273.131 234.790 C 275.962 234.790,279.262 231.039,277.429 229.906 C 277.291 229.821,277.213 230.277,277.255 230.920 C 277.329 232.055,277.324 232.061,277.067 231.136 C 276.884 230.476,276.791 230.379,276.764 230.818 C 276.679 232.208,275.532 233.519,274.399 233.519 C 272.298 233.519,272.134 232.993,272.018 225.904 L 271.915 219.626 272.653 219.428 C 273.059 219.319,273.991 219.228,274.723 219.226 C 276.110 219.221,276.772 218.793,275.905 218.461 C 275.630 218.355,275.095 218.285,274.716 218.306 C 274.189 218.335,274.251 218.401,274.980 218.586 M279.745 218.587 C 279.637 218.762,279.915 219.044,280.362 219.214 L 281.176 219.524 281.176 226.370 L 281.176 233.217 280.381 233.519 C 279.944 233.685,279.587 233.896,279.587 233.988 C 279.587 234.080,280.052 233.966,280.620 233.735 L 281.652 233.314 281.738 226.735 C 281.829 219.794,281.690 218.948,280.450 218.847 C 280.062 218.815,280.818 218.698,282.129 218.586 L 284.512 218.383 282.227 218.326 C 280.970 218.294,279.854 218.412,279.745 218.587 M291.025 218.578 C 293.778 218.814,294.890 219.212,295.592 220.215 C 295.868 220.609,296.170 220.854,296.264 220.760 C 297.234 219.790,293.686 218.243,290.670 218.321 L 288.642 218.374 291.025 218.578 M301.721 218.480 C 301.314 218.887,301.516 219.162,302.462 219.492 C 302.986 219.674,303.415 220.000,303.415 220.214 C 303.415 220.994,300.451 227.822,300.219 227.576 C 299.918 227.257,298.925 225.467,297.673 222.987 C 297.139 221.929,296.635 221.131,296.553 221.213 C 296.284 221.482,299.818 227.956,300.284 228.048 C 300.561 228.103,300.907 227.669,301.170 226.936 C 301.407 226.275,301.917 225.020,302.305 224.146 C 304.101 220.096,304.126 219.782,302.701 219.181 C 301.690 218.755,301.727 218.741,304.369 218.566 L 307.069 218.387 304.501 218.328 C 303.088 218.295,301.837 218.364,301.721 218.480 M308.230 218.549 C 307.916 218.748,308.064 218.912,308.786 219.163 L 309.770 219.506 309.770 226.323 L 309.770 233.139 308.765 233.489 C 308.212 233.682,307.832 233.911,307.919 233.998 C 308.007 234.085,308.533 233.998,309.089 233.805 L 310.099 233.452 310.014 226.258 L 309.929 219.063 309.134 218.912 C 308.661 218.822,309.174 218.684,310.405 218.570 L 312.470 218.378 310.564 218.328 C 309.515 218.301,308.465 218.400,308.230 218.549 M327.164 218.493 C 327.558 218.568,328.201 218.568,328.594 218.493 C 328.987 218.417,328.666 218.355,327.879 218.355 C 327.093 218.355,326.771 218.417,327.164 218.493 M335.113 218.499 C 335.684 218.569,336.542 218.568,337.019 218.495 C 337.497 218.423,337.029 218.365,335.981 218.367 C 334.932 218.369,334.542 218.428,335.113 218.499 M368.229 218.413 C 368.229 218.492,367.871 218.915,367.434 219.352 C 365.900 220.886,366.830 223.051,369.624 224.453 C 376.232 227.768,377.709 231.404,373.362 233.652 C 372.187 234.259,368.364 234.707,368.677 234.200 C 368.800 234.000,369.061 233.836,369.255 233.836 C 370.033 233.836,370.770 232.760,370.770 231.624 C 370.770 229.923,370.031 229.216,366.147 227.207 C 360.974 224.531,360.560 219.114,365.481 218.496 C 367.102 218.292,368.229 218.258,368.229 218.413 M73.290 219.460 C 72.059 220.389,70.510 223.044,70.565 224.129 C 70.588 224.563,70.721 224.405,70.963 223.659 C 71.567 221.794,72.679 220.199,73.861 219.501 C 74.477 219.138,74.980 218.784,74.980 218.714 C 74.980 218.383,74.345 218.663,73.290 219.460 M79.067 219.334 C 79.859 220.177,80.394 222.807,80.147 224.646 C 79.981 225.886,79.315 226.198,76.807 226.208 C 74.862 226.216,76.219 218.699,78.181 218.596 C 78.282 218.591,78.680 218.923,79.067 219.334 M88.149 218.834 C 88.239 218.925,88.637 219.160,89.033 219.357 C 89.743 219.711,89.755 219.815,89.840 226.288 L 89.925 232.860 88.966 233.356 C 87.691 234.016,87.739 234.265,89.039 233.735 L 90.071 233.314 90.157 226.735 C 90.249 219.740,90.136 219.081,88.799 218.826 C 88.351 218.740,88.058 218.744,88.149 218.834 M285.306 219.210 L 286.100 219.820 286.198 226.421 C 286.300 233.262,286.381 233.664,287.709 233.918 C 288.604 234.089,288.521 233.913,287.456 233.383 C 286.750 233.032,286.732 232.890,286.577 226.473 C 286.413 219.720,286.162 218.567,284.859 218.593 C 284.668 218.597,284.869 218.875,285.306 219.210 M313.469 218.959 C 313.844 219.140,314.299 219.595,314.480 219.970 C 314.740 220.507,314.815 220.537,314.832 220.113 C 314.853 219.568,313.713 218.568,313.114 218.608 C 312.935 218.620,313.095 218.778,313.469 218.959 M333.084 218.814 C 333.186 218.915,333.593 219.160,333.990 219.357 C 334.699 219.711,334.711 219.815,334.796 226.288 L 334.882 232.860 333.922 233.356 C 332.784 233.945,332.690 234.161,333.678 233.920 C 335.174 233.553,335.187 233.491,335.187 226.370 C 335.187 221.345,335.085 219.538,334.790 219.306 C 334.356 218.968,332.784 218.513,333.084 218.814 M338.794 219.365 L 339.635 220.144 339.635 226.634 C 339.635 233.528,339.641 233.557,341.223 233.934 C 341.979 234.113,341.988 234.100,341.401 233.662 C 341.062 233.408,340.597 233.201,340.368 233.201 C 340.039 233.201,339.952 231.825,339.952 226.589 C 339.952 219.699,339.723 218.586,338.305 218.586 C 338.112 218.586,338.332 218.937,338.794 219.365 M374.901 220.969 C 374.901 223.685,374.191 224.300,373.343 222.319 C 373.101 221.751,372.676 221.025,372.399 220.705 C 371.958 220.195,371.954 220.089,372.366 219.853 C 372.624 219.704,373.122 219.363,373.471 219.095 C 374.689 218.159,374.901 218.436,374.901 220.969 M26.890 222.502 C 24.863 227.453,24.747 227.164,28.753 227.164 C 32.930 227.164,32.817 227.604,30.181 221.604 C 29.874 220.905,29.525 220.012,29.405 219.619 C 28.979 218.222,28.344 218.950,26.890 222.502 M42.415 219.222 C 42.307 219.396,42.287 219.651,42.372 219.788 C 42.605 220.165,44.480 220.231,44.480 219.862 C 44.480 219.685,44.015 219.520,43.447 219.497 L 42.415 219.456 43.527 219.222 L 44.639 218.988 43.625 218.946 C 43.067 218.923,42.523 219.047,42.415 219.222 M234.154 219.189 C 234.154 219.371,233.819 220.275,233.409 221.198 C 233.000 222.120,232.476 223.376,232.246 223.987 C 232.016 224.599,231.708 225.235,231.561 225.401 C 230.371 226.747,231.191 227.189,234.710 227.096 C 238.790 226.988,238.647 227.335,236.553 222.624 C 236.259 221.961,235.834 220.889,235.610 220.241 C 235.241 219.172,234.154 218.387,234.154 219.189 M288.971 219.206 C 289.879 219.575,290.008 219.773,292.787 225.099 C 297.739 234.589,297.573 234.313,298.334 234.313 C 299.019 234.313,300.543 231.493,300.098 231.049 C 300.009 230.959,299.845 231.157,299.735 231.487 C 298.547 235.054,298.253 234.942,295.687 229.944 C 289.843 218.562,290.044 218.893,289.000 218.924 C 288.333 218.944,288.333 218.948,288.971 219.206 M305.425 219.397 C 304.467 219.817,303.764 220.946,304.193 221.376 C 304.304 221.486,304.481 221.245,304.587 220.839 C 304.707 220.377,305.266 219.881,306.083 219.510 C 306.800 219.184,307.172 218.926,306.910 218.937 C 306.648 218.947,305.980 219.154,305.425 219.397 M29.905 221.932 C 30.420 223.150,31.050 224.597,31.306 225.147 C 31.562 225.698,31.771 226.306,31.771 226.498 C 31.771 226.895,25.743 227.005,25.723 226.608 C 25.694 226.035,28.462 219.553,28.703 219.631 C 28.850 219.679,29.391 220.714,29.905 221.932 M236.311 222.957 C 237.060 224.834,237.668 226.477,237.661 226.608 C 237.645 226.926,231.612 226.917,231.612 226.599 C 231.612 226.462,232.127 225.140,232.755 223.660 C 233.383 222.180,234.023 220.647,234.177 220.254 C 234.637 219.075,234.888 219.392,236.311 222.957 M314.925 227.213 L 314.853 233.457 315.858 233.807 C 316.410 233.999,316.934 234.085,317.021 233.998 C 317.109 233.911,316.731 233.683,316.182 233.491 L 315.184 233.144 315.091 227.056 L 314.997 220.969 314.925 227.213 M232.045 222.319 C 231.944 222.625,231.598 223.467,231.275 224.191 C 230.953 224.914,230.595 225.880,230.480 226.338 C 230.365 226.796,230.144 227.249,229.989 227.345 C 229.833 227.441,229.706 227.726,229.706 227.979 C 229.706 228.232,229.349 229.179,228.912 230.085 C 228.475 230.990,228.118 231.897,228.118 232.100 C 228.118 232.303,227.539 232.730,226.831 233.049 C 226.124 233.368,225.475 233.743,225.389 233.882 C 225.303 234.021,225.846 233.867,226.596 233.539 C 227.478 233.154,228.160 232.569,228.530 231.881 L 229.102 230.818 228.913 231.930 C 228.733 232.991,228.783 233.067,230.015 233.577 C 230.725 233.871,231.218 233.969,231.111 233.796 C 231.003 233.622,230.572 233.349,230.152 233.189 C 229.177 232.819,229.190 232.233,230.229 229.786 L 231.072 227.800 234.695 227.800 L 238.317 227.800 238.796 228.946 C 239.059 229.577,239.350 230.017,239.442 229.925 C 239.534 229.833,239.365 229.241,239.065 228.610 L 238.521 227.463 234.703 227.552 C 230.544 227.649,230.753 227.552,229.843 229.820 C 229.572 230.494,229.278 230.973,229.189 230.883 C 229.040 230.735,230.219 227.603,231.604 224.464 C 232.344 222.787,232.653 221.763,232.418 221.763 C 232.313 221.763,232.145 222.014,232.045 222.319 M303.530 222.274 C 303.410 222.605,302.977 223.644,302.569 224.583 C 301.654 226.687,301.608 227.552,302.515 225.576 C 303.882 222.601,304.100 222.024,303.927 221.851 C 303.828 221.753,303.650 221.943,303.530 222.274 M165.279 227.689 L 165.210 233.457 166.215 233.807 C 167.505 234.256,167.755 234.025,166.585 233.464 L 165.687 233.035 165.517 227.478 L 165.347 221.922 165.279 227.689 M253.963 226.211 C 253.963 227.697,254.018 228.304,254.085 227.562 C 254.152 226.819,254.152 225.604,254.085 224.861 C 254.018 224.118,253.963 224.726,253.963 226.211 M169.201 225.338 C 169.103 226.080,169.151 227.188,169.308 227.800 C 169.552 228.751,169.598 228.556,169.626 226.450 C 169.662 223.734,169.477 223.251,169.201 225.338 M70.301 226.529 C 70.301 227.315,70.363 227.637,70.439 227.244 C 70.514 226.851,70.514 226.207,70.439 225.814 C 70.363 225.421,70.301 225.743,70.301 226.529 M248.801 227.976 C 248.719 230.452,251.052 233.312,253.943 234.280 C 256.227 235.046,260.859 234.876,259.071 234.092 C 258.648 233.907,258.793 233.876,259.539 233.991 C 261.297 234.262,264.359 230.466,262.850 229.887 C 262.305 229.678,261.768 230.965,262.012 231.896 C 262.117 232.297,262.037 232.566,261.813 232.566 C 261.608 232.566,261.528 232.423,261.636 232.248 C 261.744 232.073,261.681 231.930,261.496 231.930 C 261.311 231.930,261.160 232.069,261.160 232.240 C 261.160 232.796,259.315 233.519,257.895 233.519 C 256.266 233.519,255.190 232.602,254.600 230.713 C 254.323 229.825,254.229 229.723,254.203 230.283 C 254.142 231.637,255.717 233.836,256.748 233.836 C 257.057 233.836,257.410 233.998,257.532 234.196 C 257.844 234.702,254.306 234.237,253.058 233.609 C 250.962 232.553,249.724 230.875,249.125 228.276 C 248.855 227.101,248.830 227.078,248.801 227.976 M301.089 228.190 C 300.384 229.876,300.120 230.867,300.473 230.500 C 300.898 230.059,301.887 227.437,301.700 227.249 C 301.615 227.165,301.341 227.588,301.089 228.190 M24.652 228.197 C 24.084 229.076,22.872 232.130,22.883 232.657 C 22.892 233.071,25.073 234.286,25.337 234.022 C 25.424 233.935,24.978 233.617,24.344 233.315 C 23.711 233.013,23.193 232.667,23.193 232.545 C 23.193 232.297,23.963 230.387,24.689 228.832 L 25.172 227.800 28.735 227.800 C 32.119 227.800,32.316 227.836,32.637 228.515 C 32.823 228.908,33.364 230.064,33.840 231.083 C 34.730 232.994,36.095 234.181,37.331 234.120 C 37.765 234.099,37.645 233.986,36.955 233.764 C 35.643 233.342,34.544 232.127,33.861 230.342 C 32.744 227.422,32.850 227.482,28.753 227.482 C 25.328 227.482,25.087 227.524,24.652 228.197 M70.537 228.525 C 70.520 230.508,74.282 234.958,75.200 234.040 C 75.302 233.938,75.044 233.717,74.627 233.550 C 73.123 232.948,71.173 230.655,71.163 229.479 C 71.160 229.167,71.019 228.697,70.850 228.435 C 70.588 228.030,70.541 228.043,70.537 228.525 M185.280 229.267 C 184.732 231.189,183.336 232.885,181.767 233.538 C 181.349 233.712,181.092 233.938,181.194 234.040 C 182.108 234.955,186.142 230.082,185.779 228.502 C 185.703 228.174,185.505 228.478,185.280 229.267 M114.591 230.342 C 114.998 231.128,115.791 232.164,116.351 232.645 C 117.506 233.635,117.310 233.786,115.928 232.970 C 115.011 232.428,114.988 232.432,114.253 233.287 C 113.023 234.719,112.788 234.421,112.788 231.430 C 112.788 228.224,113.324 227.900,114.591 230.342 M169.674 229.322 C 169.621 230.712,172.695 234.201,173.916 234.135 C 174.108 234.125,173.993 233.946,173.660 233.738 C 172.210 232.831,170.950 231.509,170.343 230.259 C 169.984 229.518,169.683 229.096,169.674 229.322 M145.238 230.387 C 145.074 230.819,144.566 231.616,144.109 232.158 C 143.653 232.701,143.388 233.206,143.522 233.280 C 143.656 233.354,143.586 233.371,143.368 233.318 C 143.150 233.265,142.649 233.351,142.256 233.509 C 141.750 233.712,141.696 233.802,142.071 233.816 C 142.362 233.827,142.799 233.912,143.041 234.005 C 143.612 234.224,145.713 232.122,145.978 231.065 C 146.261 229.937,145.629 229.358,145.238 230.387 M179.975 231.034 C 179.269 234.291,177.023 234.831,175.585 232.089 C 175.274 231.497,175.080 231.337,175.072 231.667 C 175.065 231.960,175.417 232.624,175.854 233.143 C 176.872 234.353,176.869 234.360,175.457 234.259 C 174.436 234.185,174.379 234.212,175.060 234.450 C 176.090 234.808,179.125 234.805,180.143 234.445 C 180.802 234.211,180.734 234.186,179.746 234.297 C 178.362 234.454,178.282 234.264,179.319 233.281 C 179.733 232.889,180.169 232.052,180.287 231.422 C 180.560 229.967,180.281 229.620,179.975 231.034 M357.109 230.620 C 357.109 230.948,356.888 231.400,356.618 231.624 C 356.348 231.849,356.197 232.216,356.284 232.441 C 356.379 232.688,356.271 232.785,356.013 232.687 C 355.777 232.596,355.499 232.660,355.395 232.828 C 354.996 233.474,356.272 233.521,356.948 232.885 C 358.005 231.892,358.505 230.024,357.715 230.024 C 357.334 230.024,357.109 230.245,357.109 230.620 M160.459 232.168 C 160.442 233.019,161.489 234.159,162.272 234.143 C 162.693 234.134,162.636 234.026,162.035 233.693 C 161.600 233.452,161.070 232.849,160.858 232.354 C 160.511 231.541,160.472 231.523,160.459 232.168 M240.391 232.400 C 240.632 233.029,242.499 234.160,243.246 234.130 C 243.608 234.115,243.420 233.952,242.771 233.718 C 242.181 233.504,241.443 233.015,241.132 232.630 C 240.480 231.825,240.128 231.716,240.391 232.400 " stroke="none" fill="#5464b1" fill-rule="evenodd"></path><path id="path4" d="M188.547 61.972 L 187.292 63.262 192.124 68.021 L 196.957 72.780 196.971 81.614 C 196.985 90.168,196.852 92.454,196.341 92.454 C 195.983 92.454,192.319 88.827,187.194 83.400 L 182.694 78.634 182.689 72.264 C 182.684 65.069,182.704 65.131,180.376 65.131 C 177.654 65.131,177.660 65.120,177.768 70.127 C 177.820 72.534,177.785 75.180,177.692 76.006 L 177.521 77.508 171.604 77.594 L 165.687 77.681 165.594 79.269 C 165.436 81.954,165.589 82.032,171.273 82.178 C 173.967 82.247,176.917 82.381,177.829 82.476 L 179.487 82.648 186.311 89.515 C 190.065 93.292,193.073 96.483,192.996 96.608 C 192.919 96.732,188.548 96.856,183.282 96.884 L 173.708 96.934 168.890 92.152 C 163.281 86.585,163.462 86.644,160.944 89.541 L 160.332 90.246 164.572 94.528 L 168.812 98.810 166.455 101.246 C 165.159 102.587,163.256 104.510,162.227 105.520 L 160.356 107.357 161.274 108.425 C 163.619 111.152,163.337 111.267,169.976 104.844 C 171.636 103.238,173.235 101.794,173.529 101.637 C 174.839 100.936,224.928 101.295,225.843 102.012 C 226.308 102.375,228.505 104.457,230.725 106.637 C 235.198 111.028,235.017 110.964,236.956 108.833 C 238.279 107.378,238.499 107.790,233.916 103.163 C 231.775 101.002,230.024 99.029,230.024 98.778 C 230.024 98.528,231.811 96.540,233.995 94.361 C 238.561 89.806,238.353 90.255,236.644 88.629 C 234.803 86.878,234.909 86.825,229.528 92.166 L 224.696 96.961 215.434 96.814 C 210.340 96.733,206.085 96.581,205.980 96.475 C 205.665 96.160,207.140 94.495,213.086 88.448 L 218.745 82.695 223.987 82.477 C 233.123 82.096,232.812 82.189,233.098 79.770 C 233.365 77.519,233.405 77.532,226.608 77.527 L 220.810 77.522 220.810 71.829 C 220.810 68.698,220.723 65.910,220.617 65.634 C 220.396 65.058,217.888 64.929,216.581 65.426 L 215.806 65.721 215.779 72.312 L 215.753 78.903 214.231 80.477 C 213.394 81.343,210.278 84.499,207.307 87.491 L 201.906 92.931 201.821 82.764 L 201.736 72.597 206.360 68.149 C 211.500 63.205,211.390 63.404,209.855 61.822 C 208.115 60.031,207.693 60.192,203.476 64.257 C 199.038 68.535,199.262 68.459,197.201 66.380 C 190.976 60.099,190.573 59.893,188.547 61.972 M209.721 62.633 L 210.432 63.631 208.680 65.255 C 207.716 66.148,205.692 68.022,204.182 69.420 L 201.435 71.962 201.432 82.182 C 201.430 91.875,201.513 93.407,202.041 93.407 C 202.330 93.407,207.132 88.657,212.311 83.249 L 216.362 79.019 216.429 74.379 C 216.465 71.826,216.525 69.237,216.562 68.626 C 216.598 68.014,216.640 67.121,216.654 66.640 C 216.679 65.787,216.725 65.766,218.586 65.766 L 220.492 65.766 220.492 71.962 L 220.492 78.157 226.571 78.157 L 232.649 78.157 232.475 79.454 C 232.380 80.168,232.218 80.834,232.117 80.936 C 231.718 81.335,226.187 81.956,222.975 81.963 C 219.403 81.970,218.340 82.201,217.407 83.172 C 212.876 87.893,206.725 94.422,206.076 95.201 C 204.352 97.267,204.133 97.220,215.330 97.222 L 225.417 97.223 229.388 93.137 C 234.330 88.053,234.590 87.865,235.705 88.578 C 237.899 89.981,238.044 89.628,233.280 94.493 C 231.140 96.678,229.388 98.658,229.388 98.892 C 229.388 99.126,231.176 101.084,233.360 103.244 C 237.825 107.658,237.776 107.558,236.125 108.885 L 234.918 109.855 232.392 107.485 C 231.002 106.181,228.864 104.197,227.641 103.075 L 225.417 101.036 199.387 101.034 L 173.358 101.033 170.950 103.336 C 167.970 106.187,164.006 109.741,163.682 109.853 C 163.549 109.899,162.877 109.359,162.189 108.655 L 160.938 107.373 164.901 103.420 C 167.223 101.103,168.864 99.214,168.864 98.857 C 168.864 98.508,167.179 96.498,164.934 94.167 L 161.004 90.087 162.208 89.045 C 163.701 87.755,163.375 87.563,169.023 93.045 L 173.312 97.208 183.540 97.214 C 189.219 97.217,193.845 97.094,193.943 96.936 C 194.110 96.665,180.445 82.819,179.474 82.275 C 179.218 82.132,176.297 81.845,172.983 81.638 C 166.475 81.232,166.353 81.192,166.027 79.349 L 165.817 78.157 172.027 78.157 L 178.237 78.157 178.237 71.962 L 178.237 65.766 180.143 65.766 L 182.049 65.766 182.049 72.104 L 182.049 78.442 183.607 80.285 C 187.951 85.427,196.287 93.534,196.796 93.112 C 197.236 92.747,197.299 91.406,197.299 82.404 L 197.299 72.113 194.361 69.304 C 192.744 67.759,190.635 65.759,189.674 64.859 L 187.927 63.224 188.965 62.271 C 190.646 60.727,191.618 61.252,196.455 66.316 C 199.197 69.186,199.090 69.197,202.661 65.695 C 207.959 60.501,208.145 60.420,209.721 62.633 M33.254 71.939 C 33.012 72.570,33.910 73.286,34.369 72.828 C 34.807 72.389,34.479 71.485,33.880 71.485 C 33.631 71.485,33.350 71.689,33.254 71.939 M197.047 110.962 C 196.866 111.181,196.721 112.074,196.727 112.947 C 196.733 113.867,196.827 114.291,196.951 113.956 C 197.069 113.637,197.299 113.398,197.463 113.424 C 197.626 113.450,197.811 113.317,197.874 113.129 C 197.937 112.942,197.761 112.788,197.485 112.788 C 196.883 112.788,196.799 111.509,197.363 110.945 C 197.573 110.736,197.662 110.564,197.561 110.564 C 197.460 110.564,197.229 110.743,197.047 110.962 M201.395 111.914 C 201.328 112.748,201.284 112.911,201.009 113.343 C 200.865 113.570,200.970 114.043,201.252 114.447 C 201.525 114.835,201.747 115.007,201.747 114.828 C 201.747 114.650,201.581 114.337,201.377 114.133 C 201.094 113.850,201.132 113.714,201.535 113.559 C 202.124 113.333,202.218 112.564,201.747 111.835 C 201.483 111.426,201.433 111.437,201.395 111.914 M197.573 115.325 C 198.410 116.039,200.310 116.189,200.668 115.568 C 200.793 115.349,200.779 115.277,200.636 115.406 C 200.493 115.536,200.173 115.474,199.926 115.268 C 199.575 114.977,199.411 114.995,199.188 115.350 C 198.941 115.741,198.751 115.726,197.861 115.246 L 196.823 114.685 197.573 115.325 M168.443 147.378 C 167.935 147.699,167.594 149.922,167.878 151.055 L 168.083 151.870 199.292 151.789 L 230.500 151.708 230.596 149.672 C 230.663 148.257,230.566 147.555,230.279 147.373 C 229.733 147.027,168.989 147.032,168.443 147.378 M221.382 147.726 L 230.373 147.736 230.278 149.563 L 230.183 151.390 199.206 151.390 L 168.229 151.390 168.122 150.634 C 167.648 147.287,165.495 147.557,191.898 147.647 C 203.169 147.685,216.437 147.721,221.382 147.726 M167.914 156.710 C 167.761 157.570,167.796 158.609,168.034 160.207 C 168.054 160.338,182.078 160.445,199.200 160.445 L 230.329 160.445 230.514 159.709 C 230.616 159.304,230.654 158.268,230.600 157.405 L 230.500 155.838 199.300 155.757 L 168.099 155.676 167.914 156.710 M230.183 157.903 L 230.183 159.651 199.285 159.732 L 168.388 159.813 168.339 158.937 C 168.313 158.456,168.267 157.847,168.239 157.585 C 168.052 155.888,166.021 155.987,199.456 156.075 L 230.183 156.156 230.183 157.903 M167.871 164.723 C 167.548 165.566,167.903 165.843,168.278 165.041 C 168.484 164.603,168.514 164.257,168.348 164.257 C 168.184 164.257,167.969 164.467,167.871 164.723 M229.963 164.502 C 230.241 164.697,230.346 165.363,230.280 166.511 L 230.183 168.229 199.558 168.310 C 167.441 168.395,168.098 168.422,168.045 166.998 C 168.031 166.627,167.946 166.507,167.855 166.733 C 167.764 166.959,167.778 167.496,167.886 167.926 L 168.083 168.708 199.292 168.627 L 230.500 168.546 230.500 166.508 C 230.500 164.965,230.384 164.437,230.024 164.339 C 229.653 164.238,229.639 164.274,229.963 164.502 M264.479 218.614 C 264.152 219.141,264.809 219.610,265.650 219.451 C 266.316 219.324,266.298 219.303,265.494 219.265 C 264.827 219.233,264.635 219.095,264.769 218.745 C 264.981 218.193,264.792 218.107,264.479 218.614 M274.504 219.222 L 272.756 219.436 274.405 219.488 C 275.312 219.516,276.143 219.396,276.251 219.222 C 276.359 219.047,276.403 218.927,276.349 218.956 C 276.295 218.984,275.465 219.104,274.504 219.222 M64.257 219.449 C 64.738 219.522,65.524 219.522,66.005 219.449 C 66.485 219.376,66.092 219.317,65.131 219.317 C 64.170 219.317,63.777 219.376,64.257 219.449 M326.529 219.451 C 327.097 219.522,328.026 219.522,328.594 219.451 C 329.162 219.381,328.697 219.323,327.562 219.323 C 326.426 219.323,325.961 219.381,326.529 219.451 M22.796 234.378 C 23.189 234.454,23.832 234.454,24.226 234.378 C 24.619 234.303,24.297 234.241,23.511 234.241 C 22.724 234.241,22.403 234.303,22.796 234.378 M43.288 234.373 C 43.594 234.453,44.095 234.453,44.400 234.373 C 44.706 234.293,44.456 234.228,43.844 234.228 C 43.233 234.228,42.983 234.293,43.288 234.373 M48.848 234.378 C 49.241 234.454,49.885 234.454,50.278 234.378 C 50.671 234.303,50.349 234.241,49.563 234.241 C 48.777 234.241,48.455 234.303,48.848 234.378 M88.721 234.373 C 89.027 234.453,89.527 234.453,89.833 234.373 C 90.139 234.293,89.889 234.228,89.277 234.228 C 88.666 234.228,88.415 234.293,88.721 234.373 M94.281 234.378 C 94.674 234.454,95.318 234.454,95.711 234.378 C 96.104 234.303,95.782 234.241,94.996 234.241 C 94.210 234.241,93.888 234.303,94.281 234.378 M149.249 234.379 C 149.644 234.455,150.216 234.452,150.520 234.372 C 150.824 234.293,150.500 234.231,149.801 234.234 C 149.102 234.238,148.854 234.303,149.249 234.379 M154.964 234.378 C 155.357 234.454,156.001 234.454,156.394 234.378 C 156.787 234.303,156.465 234.241,155.679 234.241 C 154.893 234.241,154.571 234.303,154.964 234.378 M245.834 234.379 C 246.229 234.455,246.801 234.452,247.105 234.372 C 247.408 234.293,247.085 234.231,246.386 234.234 C 245.687 234.238,245.439 234.303,245.834 234.379 M280.461 234.378 C 280.854 234.454,281.497 234.454,281.890 234.378 C 282.284 234.303,281.962 234.241,281.176 234.241 C 280.389 234.241,280.068 234.303,280.461 234.378 M285.703 234.382 C 286.183 234.454,286.970 234.454,287.450 234.382 C 287.931 234.309,287.538 234.249,286.577 234.249 C 285.616 234.249,285.222 234.309,285.703 234.382 M308.896 234.373 C 309.202 234.453,309.702 234.453,310.008 234.373 C 310.314 234.293,310.064 234.228,309.452 234.228 C 308.840 234.228,308.590 234.293,308.896 234.373 M314.777 234.379 C 315.173 234.455,315.744 234.452,316.048 234.372 C 316.352 234.293,316.029 234.231,315.330 234.234 C 314.631 234.238,314.382 234.303,314.777 234.379 M339.714 234.373 C 340.020 234.453,340.520 234.453,340.826 234.373 C 341.132 234.293,340.882 234.228,340.270 234.228 C 339.658 234.228,339.408 234.293,339.714 234.373 " stroke="none" fill="#678c9d" fill-rule="evenodd"></path></g></svg>